<svg xmlns="http://www.w3.org/2000/svg" xmlns:xlink="http://www.w3.org/1999/xlink" width="520" zoomAndPan="magnify" viewBox="0 0 390 379.499984" height="506" preserveAspectRatio="xMidYMid meet" version="1.0"><defs><g/><clipPath id="4da8dd5716"><path d="M 0.257812 0 L 389.742188 0 L 389.742188 379 L 0.257812 379 Z M 0.257812 0 " clip-rule="nonzero"/></clipPath><clipPath id="1980c2e90f"><path d="M 8.019531 7.554688 L 130.511719 7.554688 L 130.511719 69.160156 L 8.019531 69.160156 Z M 8.019531 7.554688 " clip-rule="nonzero"/></clipPath><clipPath id="607ffa2937"><path d="M 11.015625 7.554688 L 127.316406 7.554688 C 128.113281 7.554688 128.875 7.867188 129.4375 8.429688 C 130 8.992188 130.3125 9.753906 130.3125 10.546875 L 130.3125 66.164062 C 130.3125 66.957031 130 67.71875 129.4375 68.28125 C 128.875 68.84375 128.113281 69.160156 127.316406 69.160156 L 11.015625 69.160156 C 10.21875 69.160156 9.457031 68.84375 8.894531 68.28125 C 8.332031 67.71875 8.019531 66.957031 8.019531 66.164062 L 8.019531 10.546875 C 8.019531 9.753906 8.332031 8.992188 8.894531 8.429688 C 9.457031 7.867188 10.21875 7.554688 11.015625 7.554688 Z M 11.015625 7.554688 " clip-rule="nonzero"/></clipPath><clipPath id="3666cb5f7a"><path d="M 8.019531 7.554688 L 130.105469 7.554688 L 130.105469 68.972656 L 8.019531 68.972656 Z M 8.019531 7.554688 " clip-rule="nonzero"/></clipPath><clipPath id="23c351b01c"><path d="M 11.011719 7.554688 L 127.308594 7.554688 C 128.105469 7.554688 128.867188 7.871094 129.429688 8.433594 C 129.988281 8.992188 130.304688 9.753906 130.304688 10.550781 L 130.304688 66.160156 C 130.304688 66.957031 129.988281 67.71875 129.429688 68.28125 C 128.867188 68.839844 128.105469 69.15625 127.308594 69.15625 L 11.011719 69.15625 C 10.21875 69.15625 9.457031 68.839844 8.894531 68.28125 C 8.332031 67.71875 8.019531 66.957031 8.019531 66.160156 L 8.019531 10.550781 C 8.019531 9.753906 8.332031 8.992188 8.894531 8.433594 C 9.457031 7.871094 10.21875 7.554688 11.011719 7.554688 Z M 11.011719 7.554688 " clip-rule="nonzero"/></clipPath><clipPath id="3f45d5a568"><path d="M 259.6875 7.554688 L 382 7.554688 L 382 69.160156 L 259.6875 69.160156 Z M 259.6875 7.554688 " clip-rule="nonzero"/></clipPath><clipPath id="74812c3351"><path d="M 262.683594 7.554688 L 378.984375 7.554688 C 379.78125 7.554688 380.542969 7.867188 381.105469 8.429688 C 381.667969 8.992188 381.980469 9.753906 381.980469 10.546875 L 381.980469 66.164062 C 381.980469 66.957031 381.667969 67.71875 381.105469 68.28125 C 380.542969 68.84375 379.78125 69.160156 378.984375 69.160156 L 262.683594 69.160156 C 261.886719 69.160156 261.125 68.84375 260.5625 68.28125 C 260 67.71875 259.6875 66.957031 259.6875 66.164062 L 259.6875 10.546875 C 259.6875 9.753906 260 8.992188 260.5625 8.429688 C 261.125 7.867188 261.886719 7.554688 262.683594 7.554688 Z M 262.683594 7.554688 " clip-rule="nonzero"/></clipPath><clipPath id="7dd187e2e3"><path d="M 259.6875 7.554688 L 381.773438 7.554688 L 381.773438 68.972656 L 259.6875 68.972656 Z M 259.6875 7.554688 " clip-rule="nonzero"/></clipPath><clipPath id="a48d0cd567"><path d="M 262.683594 7.554688 L 378.976562 7.554688 C 379.773438 7.554688 380.535156 7.871094 381.097656 8.433594 C 381.660156 8.992188 381.972656 9.753906 381.972656 10.550781 L 381.972656 66.160156 C 381.972656 66.957031 381.660156 67.71875 381.097656 68.28125 C 380.535156 68.839844 379.773438 69.15625 378.976562 69.15625 L 262.683594 69.15625 C 261.886719 69.15625 261.125 68.839844 260.5625 68.28125 C 260 67.71875 259.6875 66.957031 259.6875 66.160156 L 259.6875 10.550781 C 259.6875 9.753906 260 8.992188 260.5625 8.433594 C 261.125 7.871094 261.886719 7.554688 262.683594 7.554688 Z M 262.683594 7.554688 " clip-rule="nonzero"/></clipPath><clipPath id="60f2f756dd"><path d="M 8.019531 309.839844 L 130.511719 309.839844 L 130.511719 371.449219 L 8.019531 371.449219 Z M 8.019531 309.839844 " clip-rule="nonzero"/></clipPath><clipPath id="a95c97f956"><path d="M 11.015625 309.839844 L 127.316406 309.839844 C 128.113281 309.839844 128.875 310.15625 129.4375 310.71875 C 130 311.28125 130.3125 312.042969 130.3125 312.835938 L 130.3125 368.453125 C 130.3125 369.246094 130 370.007812 129.4375 370.570312 C 128.875 371.132812 128.113281 371.449219 127.316406 371.449219 L 11.015625 371.449219 C 10.21875 371.449219 9.457031 371.132812 8.894531 370.570312 C 8.332031 370.007812 8.019531 369.246094 8.019531 368.453125 L 8.019531 312.835938 C 8.019531 312.042969 8.332031 311.28125 8.894531 310.71875 C 9.457031 310.15625 10.21875 309.839844 11.015625 309.839844 Z M 11.015625 309.839844 " clip-rule="nonzero"/></clipPath><clipPath id="1d709b2839"><path d="M 8.019531 309.84375 L 130.105469 309.84375 L 130.105469 371.261719 L 8.019531 371.261719 Z M 8.019531 309.84375 " clip-rule="nonzero"/></clipPath><clipPath id="e48e0ebb23"><path d="M 11.011719 309.84375 L 127.308594 309.84375 C 128.105469 309.84375 128.867188 310.160156 129.429688 310.71875 C 129.988281 311.28125 130.304688 312.042969 130.304688 312.839844 L 130.304688 368.449219 C 130.304688 369.246094 129.988281 370.007812 129.429688 370.566406 C 128.867188 371.128906 128.105469 371.445312 127.308594 371.445312 L 11.011719 371.445312 C 10.21875 371.445312 9.457031 371.128906 8.894531 370.566406 C 8.332031 370.007812 8.019531 369.246094 8.019531 368.449219 L 8.019531 312.839844 C 8.019531 312.042969 8.332031 311.28125 8.894531 310.71875 C 9.457031 310.160156 10.21875 309.84375 11.011719 309.84375 Z M 11.011719 309.84375 " clip-rule="nonzero"/></clipPath><clipPath id="9e7fde3785"><path d="M 129.519531 157.808594 L 252 157.808594 L 252 219.414062 L 129.519531 219.414062 Z M 129.519531 157.808594 " clip-rule="nonzero"/></clipPath><clipPath id="1257f650d8"><path d="M 132.515625 157.808594 L 248.820312 157.808594 C 249.613281 157.808594 250.378906 158.125 250.9375 158.683594 C 251.5 159.246094 251.816406 160.007812 251.816406 160.804688 L 251.816406 216.417969 C 251.816406 217.214844 251.5 217.976562 250.9375 218.539062 C 250.378906 219.097656 249.613281 219.414062 248.820312 219.414062 L 132.515625 219.414062 C 131.722656 219.414062 130.960938 219.097656 130.398438 218.539062 C 129.835938 217.976562 129.519531 217.214844 129.519531 216.417969 L 129.519531 160.804688 C 129.519531 160.007812 129.835938 159.246094 130.398438 158.683594 C 130.960938 158.125 131.722656 157.808594 132.515625 157.808594 Z M 132.515625 157.808594 " clip-rule="nonzero"/></clipPath><clipPath id="f69afde454"><path d="M 129.519531 157.808594 L 251.609375 157.808594 L 251.609375 219.226562 L 129.519531 219.226562 Z M 129.519531 157.808594 " clip-rule="nonzero"/></clipPath><clipPath id="2a484b802e"><path d="M 132.515625 157.808594 L 248.8125 157.808594 C 249.609375 157.808594 250.371094 158.125 250.929688 158.6875 C 251.492188 159.25 251.808594 160.011719 251.808594 160.804688 L 251.808594 216.417969 C 251.808594 217.210938 251.492188 217.972656 250.929688 218.535156 C 250.371094 219.097656 249.609375 219.414062 248.8125 219.414062 L 132.515625 219.414062 C 131.722656 219.414062 130.960938 219.097656 130.398438 218.535156 C 129.835938 217.972656 129.519531 217.210938 129.519531 216.417969 L 129.519531 160.804688 C 129.519531 160.011719 129.835938 159.25 130.398438 158.6875 C 130.960938 158.125 131.722656 157.808594 132.515625 157.808594 Z M 132.515625 157.808594 " clip-rule="nonzero"/></clipPath><clipPath id="cd24278918"><path d="M 259.6875 307.867188 L 382 307.867188 L 382 370.699219 L 259.6875 370.699219 Z M 259.6875 307.867188 " clip-rule="nonzero"/></clipPath><clipPath id="069affbba5"><path d="M 262.683594 307.867188 L 378.984375 307.867188 C 379.78125 307.867188 380.542969 308.183594 381.105469 308.746094 C 381.667969 309.308594 381.980469 310.070312 381.980469 310.863281 L 381.980469 367.703125 C 381.980469 368.496094 381.667969 369.257812 381.105469 369.820312 C 380.542969 370.382812 379.78125 370.699219 378.984375 370.699219 L 262.683594 370.699219 C 261.886719 370.699219 261.125 370.382812 260.5625 369.820312 C 260 369.257812 259.6875 368.496094 259.6875 367.703125 L 259.6875 310.863281 C 259.6875 310.070312 260 309.308594 260.5625 308.746094 C 261.125 308.183594 261.886719 307.867188 262.683594 307.867188 Z M 262.683594 307.867188 " clip-rule="nonzero"/></clipPath><clipPath id="d49003313c"><path d="M 259.6875 307.867188 L 381.773438 307.867188 L 381.773438 370.78125 L 259.6875 370.78125 Z M 259.6875 307.867188 " clip-rule="nonzero"/></clipPath><clipPath id="e2f9025dcc"><path d="M 262.683594 307.867188 L 378.976562 307.867188 C 379.769531 307.867188 380.53125 308.183594 381.09375 308.746094 C 381.65625 309.308594 381.972656 310.070312 381.972656 310.863281 L 381.972656 367.695312 C 381.972656 368.492188 381.65625 369.253906 381.09375 369.816406 C 380.53125 370.375 379.769531 370.691406 378.976562 370.691406 L 262.683594 370.691406 C 261.890625 370.691406 261.128906 370.375 260.566406 369.816406 C 260.003906 369.253906 259.6875 368.492188 259.6875 367.695312 L 259.6875 310.863281 C 259.6875 310.070312 260.003906 309.308594 260.566406 308.746094 C 261.128906 308.183594 261.890625 307.867188 262.683594 307.867188 Z M 262.683594 307.867188 " clip-rule="nonzero"/></clipPath></defs><g clip-path="url(#4da8dd5716)"><path fill="#ffffff" d="M 0.257812 0 L 389.742188 0 L 389.742188 379 L 0.257812 379 Z M 0.257812 0 " fill-opacity="1" fill-rule="nonzero"/><path fill="#ffffff" d="M 0.257812 0 L 389.742188 0 L 389.742188 379 L 0.257812 379 Z M 0.257812 0 " fill-opacity="1" fill-rule="nonzero"/></g><g clip-path="url(#1980c2e90f)"><g clip-path="url(#607ffa2937)"><path fill="#eff6ff" d="M 8.019531 7.554688 L 130.269531 7.554688 L 130.269531 69.160156 L 8.019531 69.160156 Z M 8.019531 7.554688 " fill-opacity="1" fill-rule="nonzero"/></g></g><g clip-path="url(#3666cb5f7a)"><g clip-path="url(#23c351b01c)"><path stroke-linecap="butt" transform="matrix(0.749013, 0, 0, 0.749013, 8.017788, 7.554399)" fill="none" stroke-linejoin="miter" d="M 3.997167 0.00038498 L 159.263989 0.00038498 C 160.327889 0.00038498 161.344852 0.422816 162.09584 1.173804 C 162.846828 1.919577 163.264044 2.93654 163.264044 4.00044 L 163.264044 78.243974 C 163.264044 79.307874 162.846828 80.324837 162.09584 81.075825 C 161.344852 81.821598 160.327889 82.244029 159.263989 82.244029 L 3.997167 82.244029 C 2.938482 82.244029 1.921519 81.821598 1.170531 81.075825 C 0.419543 80.324837 0.0023269 79.307874 0.0023269 78.243974 L 0.0023269 4.00044 C 0.0023269 2.93654 0.419543 1.919577 1.170531 1.173804 C 1.921519 0.422816 2.938482 0.00038498 3.997167 0.00038498 Z M 3.997167 0.00038498 " stroke="#1d4ed8" stroke-width="6" stroke-opacity="1" stroke-miterlimit="4"/></g></g><g fill="#000000" fill-opacity="1"><g transform="translate(35.08759, 45.003393)"><g><path d="M 3.453125 0 L 1.9375 0 L 1.9375 -12.828125 L 3.453125 -12.828125 Z M 3.453125 0 "/></g></g></g><g fill="#000000" fill-opacity="1"><g transform="translate(40.482242, 45.003393)"><g><path d="M 5.015625 0.1875 C 4.242188 0.1875 3.5625 0 2.96875 -0.375 C 2.375 -0.75 1.90625 -1.304688 1.5625 -2.046875 C 1.226562 -2.796875 1.0625 -3.722656 1.0625 -4.828125 C 1.0625 -5.941406 1.234375 -6.875 1.578125 -7.625 C 1.929688 -8.375 2.414062 -8.929688 3.03125 -9.296875 C 3.65625 -9.671875 4.375 -9.859375 5.1875 -9.859375 C 5.832031 -9.859375 6.410156 -9.738281 6.921875 -9.5 C 7.429688 -9.257812 7.875 -8.859375 8.25 -8.296875 L 8.4375 -8.328125 L 8.4375 -13.5625 L 9.859375 -13.5625 L 9.859375 0 L 8.4375 0 L 8.4375 -1.40625 L 8.25 -1.453125 C 7.9375 -0.972656 7.507812 -0.578125 6.96875 -0.265625 C 6.425781 0.0351562 5.773438 0.1875 5.015625 0.1875 Z M 5.46875 -1.09375 C 6.363281 -1.09375 7.082031 -1.398438 7.625 -2.015625 C 8.164062 -2.640625 8.4375 -3.578125 8.4375 -4.828125 C 8.4375 -6.097656 8.164062 -7.039062 7.625 -7.65625 C 7.082031 -8.269531 6.363281 -8.578125 5.46875 -8.578125 C 4.539062 -8.578125 3.820312 -8.273438 3.3125 -7.671875 C 2.8125 -7.066406 2.5625 -6.117188 2.5625 -4.828125 C 2.5625 -2.335938 3.53125 -1.09375 5.46875 -1.09375 Z M 5.46875 -1.09375 "/></g></g></g><g fill="#000000" fill-opacity="1"><g transform="translate(52.034685, 45.003393)"><g><path d="M 9.21875 -4.515625 L 2.578125 -4.515625 C 2.609375 -3.335938 2.882812 -2.472656 3.40625 -1.921875 C 3.9375 -1.367188 4.660156 -1.09375 5.578125 -1.09375 C 6.265625 -1.09375 6.816406 -1.210938 7.234375 -1.453125 C 7.660156 -1.703125 7.992188 -2.09375 8.234375 -2.625 L 8.421875 -2.625 L 9.34375 -2.078125 C 9.0625 -1.367188 8.613281 -0.8125 8 -0.40625 C 7.382812 -0.0078125 6.578125 0.1875 5.578125 0.1875 C 4.640625 0.1875 3.832031 0.00390625 3.15625 -0.359375 C 2.488281 -0.734375 1.972656 -1.296875 1.609375 -2.046875 C 1.242188 -2.796875 1.0625 -3.722656 1.0625 -4.828125 C 1.0625 -5.929688 1.253906 -6.859375 1.640625 -7.609375 C 2.023438 -8.367188 2.546875 -8.929688 3.203125 -9.296875 C 3.867188 -9.671875 4.628906 -9.859375 5.484375 -9.859375 C 6.722656 -9.859375 7.691406 -9.507812 8.390625 -8.8125 C 9.085938 -8.113281 9.4375 -7.078125 9.4375 -5.703125 C 9.4375 -5.160156 9.425781 -4.796875 9.40625 -4.609375 Z M 8.03125 -5.703125 C 8.007812 -6.734375 7.78125 -7.484375 7.34375 -7.953125 C 6.90625 -8.421875 6.285156 -8.65625 5.484375 -8.65625 C 4.640625 -8.65625 3.972656 -8.414062 3.484375 -7.9375 C 3.003906 -7.46875 2.710938 -6.722656 2.609375 -5.703125 Z M 8.03125 -5.703125 "/></g></g></g><g fill="#000000" fill-opacity="1"><g transform="translate(62.350302, 45.003393)"><g><path d="M 1.6875 0 L 1.6875 -9.671875 L 3.046875 -9.671875 L 3.046875 -8.15625 L 3.234375 -8.109375 C 3.554688 -8.679688 3.96875 -9.113281 4.46875 -9.40625 C 4.96875 -9.707031 5.578125 -9.859375 6.296875 -9.859375 C 7.453125 -9.859375 8.289062 -9.5625 8.8125 -8.96875 C 9.34375 -8.375 9.609375 -7.460938 9.609375 -6.234375 L 9.609375 0 L 8.171875 0 L 8.171875 -6.1875 C 8.171875 -6.78125 8.097656 -7.253906 7.953125 -7.609375 C 7.804688 -7.960938 7.578125 -8.21875 7.265625 -8.375 C 6.953125 -8.53125 6.539062 -8.609375 6.03125 -8.609375 C 5.15625 -8.609375 4.445312 -8.320312 3.90625 -7.75 C 3.375 -7.175781 3.109375 -6.25 3.109375 -4.96875 L 3.109375 0 Z M 1.6875 0 "/></g></g></g><g fill="#000000" fill-opacity="1"><g transform="translate(73.490466, 45.003393)"><g><path d="M 6.546875 -1.53125 L 7 -0.515625 C 6.769531 -0.285156 6.46875 -0.113281 6.09375 0 C 5.726562 0.125 5.328125 0.1875 4.890625 0.1875 C 3.046875 0.1875 2.125 -0.75 2.125 -2.625 L 2.125 -8.515625 L 0.4375 -8.515625 L 0.4375 -9.6875 L 2.125 -9.6875 L 2.125 -11.734375 L 3.546875 -11.96875 L 3.546875 -9.6875 L 6.671875 -9.6875 L 6.671875 -8.515625 L 3.546875 -8.515625 L 3.546875 -2.765625 C 3.546875 -1.648438 4.03125 -1.09375 5 -1.09375 C 5.53125 -1.09375 5.984375 -1.238281 6.359375 -1.53125 Z M 6.546875 -1.53125 "/></g></g></g><g fill="#000000" fill-opacity="1"><g transform="translate(80.858763, 45.003393)"><g><path d="M 2.40625 -11.546875 C 2.101562 -11.546875 1.851562 -11.640625 1.65625 -11.828125 C 1.46875 -12.015625 1.375 -12.257812 1.375 -12.5625 C 1.375 -12.851562 1.46875 -13.09375 1.65625 -13.28125 C 1.851562 -13.46875 2.101562 -13.5625 2.40625 -13.5625 C 2.707031 -13.5625 2.953125 -13.46875 3.140625 -13.28125 C 3.335938 -13.09375 3.4375 -12.851562 3.4375 -12.5625 C 3.4375 -12.257812 3.335938 -12.015625 3.140625 -11.828125 C 2.953125 -11.640625 2.707031 -11.546875 2.40625 -11.546875 Z M 1.6875 0 L 1.6875 -9.671875 L 3.109375 -9.671875 L 3.109375 0 Z M 1.6875 0 "/></g></g></g><g fill="#000000" fill-opacity="1"><g transform="translate(85.656934, 45.003393)"><g><path d="M 6.546875 -1.53125 L 7 -0.515625 C 6.769531 -0.285156 6.46875 -0.113281 6.09375 0 C 5.726562 0.125 5.328125 0.1875 4.890625 0.1875 C 3.046875 0.1875 2.125 -0.75 2.125 -2.625 L 2.125 -8.515625 L 0.4375 -8.515625 L 0.4375 -9.6875 L 2.125 -9.6875 L 2.125 -11.734375 L 3.546875 -11.96875 L 3.546875 -9.6875 L 6.671875 -9.6875 L 6.671875 -8.515625 L 3.546875 -8.515625 L 3.546875 -2.765625 C 3.546875 -1.648438 4.03125 -1.09375 5 -1.09375 C 5.53125 -1.09375 5.984375 -1.238281 6.359375 -1.53125 Z M 6.546875 -1.53125 "/></g></g></g><g fill="#000000" fill-opacity="1"><g transform="translate(93.025232, 45.003393)"><g><path d="M 1.9375 4.109375 C 1.613281 4.109375 1.304688 4.078125 1.015625 4.015625 C 0.734375 3.960938 0.492188 3.890625 0.296875 3.796875 L 0.546875 2.65625 L 0.703125 2.609375 C 0.847656 2.679688 1.023438 2.738281 1.234375 2.78125 C 1.441406 2.832031 1.660156 2.859375 1.890625 2.859375 C 2.273438 2.859375 2.597656 2.804688 2.859375 2.703125 C 3.117188 2.597656 3.335938 2.421875 3.515625 2.171875 C 3.703125 1.929688 3.875 1.597656 4.03125 1.171875 L 4.375 0.234375 L 0.484375 -9.671875 L 2.03125 -9.671875 L 5.078125 -1.78125 L 5.25 -1.78125 L 8.1875 -9.671875 L 9.65625 -9.671875 L 5.328125 1.515625 C 5.085938 2.140625 4.8125 2.640625 4.5 3.015625 C 4.195312 3.390625 3.835938 3.664062 3.421875 3.84375 C 3.015625 4.019531 2.519531 4.109375 1.9375 4.109375 Z M 1.9375 4.109375 "/></g></g></g><path stroke-linecap="round" transform="matrix(0.530505, 0.528758, -0.528758, 0.530505, 73.292365, 83.626435)" fill="none" stroke-linejoin="miter" d="M 1.501328 1.497761 L 98.484289 1.499171 " stroke="#000000" stroke-width="3" stroke-opacity="1" stroke-miterlimit="4"/><path stroke-linecap="round" transform="matrix(0.530505, 0.528758, -0.528758, 0.530505, 73.292365, 83.626435)" fill-opacity="1" fill="#000000" fill-rule="nonzero" stroke-linejoin="round" d="M 99.985233 -3.001041 L 105.985086 1.496793 L 99.985141 5.99696 Z M 99.985233 -3.001041 " stroke="#000000" stroke-width="3" stroke-opacity="1" stroke-miterlimit="4"/><path stroke-linecap="round" transform="matrix(-0.54511, 0.513689, -0.513689, -0.54511, 308.840474, 86.061116)" fill="none" stroke-linejoin="miter" d="M 1.499919 1.496913 L 101.513855 1.498785 " stroke="#000000" stroke-width="3" stroke-opacity="1" stroke-miterlimit="4"/><path stroke-linecap="round" transform="matrix(-0.54511, 0.513689, -0.513689, -0.54511, 308.840474, 86.061116)" fill-opacity="1" fill="#000000" fill-rule="nonzero" stroke-linejoin="round" d="M 103.014756 -2.99877 L 109.014324 1.501249 L 103.012471 5.999559 Z M 103.014756 -2.99877 " stroke="#000000" stroke-width="3" stroke-opacity="1" stroke-miterlimit="4"/><g clip-path="url(#3f45d5a568)"><g clip-path="url(#74812c3351)"><path fill="#eff6ff" d="M 259.6875 7.554688 L 381.9375 7.554688 L 381.9375 69.160156 L 259.6875 69.160156 Z M 259.6875 7.554688 " fill-opacity="1" fill-rule="nonzero"/></g></g><g clip-path="url(#7dd187e2e3)"><g clip-path="url(#a48d0cd567)"><path stroke-linecap="butt" transform="matrix(0.749013, 0, 0, 0.749013, 259.686196, 7.554399)" fill="none" stroke-linejoin="miter" d="M 4.001796 0.00038498 L 159.263403 0.00038498 C 160.327303 0.00038498 161.344266 0.422816 162.095254 1.173804 C 162.846242 1.919577 163.263458 2.93654 163.263458 4.00044 L 163.263458 78.243974 C 163.263458 79.307874 162.846242 80.324837 162.095254 81.075825 C 161.344266 81.821598 160.327303 82.244029 159.263403 82.244029 L 4.001796 82.244029 C 2.937896 82.244029 1.920933 81.821598 1.169945 81.075825 C 0.418957 80.324837 0.0017409 79.307874 0.0017409 78.243974 L 0.0017409 4.00044 C 0.0017409 2.93654 0.418957 1.919577 1.169945 1.173804 C 1.920933 0.422816 2.937896 0.00038498 4.001796 0.00038498 Z M 4.001796 0.00038498 " stroke="#1d4ed8" stroke-width="6" stroke-opacity="1" stroke-miterlimit="4"/></g></g><g fill="#000000" fill-opacity="1"><g transform="translate(293.602445, 45.003393)"><g><path d="M 6.75 0.1875 C 5.664062 0.1875 4.710938 -0.0546875 3.890625 -0.546875 C 3.078125 -1.046875 2.4375 -1.785156 1.96875 -2.765625 C 1.507812 -3.753906 1.28125 -4.96875 1.28125 -6.40625 C 1.28125 -7.851562 1.523438 -9.066406 2.015625 -10.046875 C 2.515625 -11.035156 3.203125 -11.773438 4.078125 -12.265625 C 4.953125 -12.765625 5.960938 -13.015625 7.109375 -13.015625 C 8.335938 -13.015625 9.347656 -12.789062 10.140625 -12.34375 C 10.929688 -11.90625 11.488281 -11.25 11.8125 -10.375 L 10.828125 -9.796875 L 10.609375 -9.796875 C 10.273438 -10.460938 9.828125 -10.9375 9.265625 -11.21875 C 8.703125 -11.507812 7.984375 -11.65625 7.109375 -11.65625 C 4.296875 -11.65625 2.890625 -9.90625 2.890625 -6.40625 C 2.890625 -4.59375 3.242188 -3.265625 3.953125 -2.421875 C 4.660156 -1.585938 5.65625 -1.171875 6.9375 -1.171875 C 8.101562 -1.171875 8.976562 -1.4375 9.5625 -1.96875 C 10.144531 -2.5 10.4375 -3.34375 10.4375 -4.5 L 10.4375 -5.625 L 6.78125 -5.625 L 6.78125 -6.828125 L 11.890625 -6.828125 L 11.890625 0 L 10.5 0 L 10.5 -1.71875 L 10.3125 -1.765625 C 9.976562 -1.097656 9.507812 -0.601562 8.90625 -0.28125 C 8.300781 0.03125 7.582031 0.1875 6.75 0.1875 Z M 6.75 0.1875 "/></g></g></g><g fill="#000000" fill-opacity="1"><g transform="translate(306.935555, 45.003393)"><g><path d="M 1.6875 0 L 1.6875 -9.671875 L 3.046875 -9.671875 L 3.046875 -8.15625 L 3.234375 -8.109375 C 3.679688 -9.210938 4.523438 -9.765625 5.765625 -9.765625 C 6.429688 -9.765625 6.925781 -9.644531 7.25 -9.40625 L 6.890625 -8.1875 L 6.71875 -8.15625 C 6.351562 -8.34375 5.953125 -8.4375 5.515625 -8.4375 C 4.742188 -8.4375 4.148438 -8.144531 3.734375 -7.5625 C 3.316406 -6.976562 3.109375 -6.039062 3.109375 -4.75 L 3.109375 0 Z M 1.6875 0 "/></g></g></g><g fill="#000000" fill-opacity="1"><g transform="translate(314.409114, 45.003393)"><g><path d="M 5.546875 0.1875 C 4.640625 0.1875 3.847656 -0.00390625 3.171875 -0.390625 C 2.492188 -0.773438 1.972656 -1.34375 1.609375 -2.09375 C 1.242188 -2.851562 1.0625 -3.765625 1.0625 -4.828125 C 1.0625 -5.898438 1.242188 -6.8125 1.609375 -7.5625 C 1.972656 -8.320312 2.492188 -8.894531 3.171875 -9.28125 C 3.847656 -9.664062 4.640625 -9.859375 5.546875 -9.859375 C 6.460938 -9.859375 7.257812 -9.664062 7.9375 -9.28125 C 8.613281 -8.894531 9.132812 -8.320312 9.5 -7.5625 C 9.863281 -6.8125 10.046875 -5.898438 10.046875 -4.828125 C 10.046875 -3.765625 9.863281 -2.851562 9.5 -2.09375 C 9.132812 -1.34375 8.613281 -0.773438 7.9375 -0.390625 C 7.257812 -0.00390625 6.460938 0.1875 5.546875 0.1875 Z M 5.546875 -1.09375 C 6.515625 -1.09375 7.253906 -1.394531 7.765625 -2 C 8.273438 -2.613281 8.53125 -3.554688 8.53125 -4.828125 C 8.53125 -6.109375 8.273438 -7.050781 7.765625 -7.65625 C 7.253906 -8.269531 6.515625 -8.578125 5.546875 -8.578125 C 4.585938 -8.578125 3.847656 -8.269531 3.328125 -7.65625 C 2.816406 -7.050781 2.5625 -6.109375 2.5625 -4.828125 C 2.5625 -3.554688 2.816406 -2.613281 3.328125 -2 C 3.847656 -1.394531 4.585938 -1.09375 5.546875 -1.09375 Z M 5.546875 -1.09375 "/></g></g></g><g fill="#000000" fill-opacity="1"><g transform="translate(325.51419, 45.003393)"><g><path d="M 4.78125 0.1875 C 3.6875 0.1875 2.867188 -0.0976562 2.328125 -0.671875 C 1.796875 -1.253906 1.53125 -2.109375 1.53125 -3.234375 L 1.53125 -9.671875 L 2.96875 -9.671875 L 2.96875 -3.265625 C 2.96875 -1.796875 3.65625 -1.0625 5.03125 -1.0625 C 5.914062 -1.0625 6.609375 -1.347656 7.109375 -1.921875 C 7.617188 -2.492188 7.875 -3.425781 7.875 -4.71875 L 7.875 -9.671875 L 9.3125 -9.671875 L 9.3125 0 L 7.953125 0 L 7.953125 -1.515625 L 7.78125 -1.5625 C 7.445312 -0.96875 7.046875 -0.523438 6.578125 -0.234375 C 6.109375 0.046875 5.507812 0.1875 4.78125 0.1875 Z M 4.78125 0.1875 "/></g></g></g><g fill="#000000" fill-opacity="1"><g transform="translate(336.50524, 45.003393)"><g><path d="M 1.6875 3.921875 L 1.6875 -9.671875 L 3.109375 -9.671875 L 3.109375 -8.234375 L 3.296875 -8.1875 C 4.015625 -9.300781 5.070312 -9.859375 6.46875 -9.859375 C 7.269531 -9.859375 7.972656 -9.671875 8.578125 -9.296875 C 9.179688 -8.929688 9.648438 -8.375 9.984375 -7.625 C 10.316406 -6.875 10.484375 -5.941406 10.484375 -4.828125 C 10.484375 -3.722656 10.304688 -2.796875 9.953125 -2.046875 C 9.609375 -1.304688 9.125 -0.75 8.5 -0.375 C 7.882812 0 7.171875 0.1875 6.359375 0.1875 C 5.703125 0.1875 5.117188 0.0703125 4.609375 -0.15625 C 4.109375 -0.382812 3.671875 -0.757812 3.296875 -1.28125 L 3.109375 -1.25 L 3.109375 3.921875 Z M 6.046875 -1.09375 C 8.003906 -1.09375 8.984375 -2.335938 8.984375 -4.828125 C 8.984375 -7.328125 8.003906 -8.578125 6.046875 -8.578125 C 5.472656 -8.578125 4.96875 -8.445312 4.53125 -8.1875 C 4.09375 -7.925781 3.742188 -7.515625 3.484375 -6.953125 C 3.234375 -6.390625 3.109375 -5.679688 3.109375 -4.828125 C 3.109375 -3.984375 3.234375 -3.28125 3.484375 -2.71875 C 3.742188 -2.164062 4.09375 -1.753906 4.53125 -1.484375 C 4.96875 -1.222656 5.472656 -1.09375 6.046875 -1.09375 Z M 6.046875 -1.09375 "/></g></g></g><g clip-path="url(#60f2f756dd)"><g clip-path="url(#a95c97f956)"><path fill="#eff6ff" d="M 8.019531 309.839844 L 130.269531 309.839844 L 130.269531 371.449219 L 8.019531 371.449219 Z M 8.019531 309.839844 " fill-opacity="1" fill-rule="nonzero"/></g></g><g clip-path="url(#1d709b2839)"><g clip-path="url(#e48e0ebb23)"><path stroke-linecap="butt" transform="matrix(0.749013, 0, 0, 0.749013, 8.017788, 309.842579)" fill="none" stroke-linejoin="miter" d="M 3.997167 0.00156392 L 159.263989 0.00156392 C 160.327889 0.00156392 161.344852 0.423995 162.09584 1.169768 C 162.846828 1.920756 163.264044 2.937719 163.264044 4.001619 L 163.264044 78.245153 C 163.264044 79.309053 162.846828 80.326016 162.09584 81.071789 C 161.344852 81.822777 160.327889 82.245208 159.263989 82.245208 L 3.997167 82.245208 C 2.938482 82.245208 1.921519 81.822777 1.170531 81.071789 C 0.419543 80.326016 0.0023269 79.309053 0.0023269 78.245153 L 0.0023269 4.001619 C 0.0023269 2.937719 0.419543 1.920756 1.170531 1.169768 C 1.921519 0.423995 2.938482 0.00156392 3.997167 0.00156392 Z M 3.997167 0.00156392 " stroke="#1d4ed8" stroke-width="6" stroke-opacity="1" stroke-miterlimit="4"/></g></g><g fill="#000000" fill-opacity="1"><g transform="translate(45.023717, 347.291565)"><g><path d="M 6.53125 -12.828125 C 7.414062 -12.828125 8.171875 -12.664062 8.796875 -12.34375 C 9.429688 -12.03125 9.910156 -11.578125 10.234375 -10.984375 C 10.566406 -10.398438 10.734375 -9.710938 10.734375 -8.921875 C 10.734375 -8.128906 10.566406 -7.4375 10.234375 -6.84375 C 9.910156 -6.257812 9.429688 -5.804688 8.796875 -5.484375 C 8.171875 -5.171875 7.414062 -5.015625 6.53125 -5.015625 L 3.453125 -5.015625 L 3.453125 0 L 1.9375 0 L 1.9375 -12.828125 Z M 6.484375 -6.3125 C 8.265625 -6.3125 9.15625 -7.179688 9.15625 -8.921875 C 9.15625 -10.671875 8.265625 -11.546875 6.484375 -11.546875 L 3.453125 -11.546875 L 3.453125 -6.3125 Z M 6.484375 -6.3125 "/></g></g></g><g fill="#000000" fill-opacity="1"><g transform="translate(56.716509, 347.291565)"><g><path d="M 1.6875 0 L 1.6875 -9.671875 L 3.046875 -9.671875 L 3.046875 -8.15625 L 3.234375 -8.109375 C 3.679688 -9.210938 4.523438 -9.765625 5.765625 -9.765625 C 6.429688 -9.765625 6.925781 -9.644531 7.25 -9.40625 L 6.890625 -8.1875 L 6.71875 -8.15625 C 6.351562 -8.34375 5.953125 -8.4375 5.515625 -8.4375 C 4.742188 -8.4375 4.148438 -8.144531 3.734375 -7.5625 C 3.316406 -6.976562 3.109375 -6.039062 3.109375 -4.75 L 3.109375 0 Z M 1.6875 0 "/></g></g></g><g fill="#000000" fill-opacity="1"><g transform="translate(64.190067, 347.291565)"><g><path d="M 5.546875 0.1875 C 4.640625 0.1875 3.847656 -0.00390625 3.171875 -0.390625 C 2.492188 -0.773438 1.972656 -1.34375 1.609375 -2.09375 C 1.242188 -2.851562 1.0625 -3.765625 1.0625 -4.828125 C 1.0625 -5.898438 1.242188 -6.8125 1.609375 -7.5625 C 1.972656 -8.320312 2.492188 -8.894531 3.171875 -9.28125 C 3.847656 -9.664062 4.640625 -9.859375 5.546875 -9.859375 C 6.460938 -9.859375 7.257812 -9.664062 7.9375 -9.28125 C 8.613281 -8.894531 9.132812 -8.320312 9.5 -7.5625 C 9.863281 -6.8125 10.046875 -5.898438 10.046875 -4.828125 C 10.046875 -3.765625 9.863281 -2.851562 9.5 -2.09375 C 9.132812 -1.34375 8.613281 -0.773438 7.9375 -0.390625 C 7.257812 -0.00390625 6.460938 0.1875 5.546875 0.1875 Z M 5.546875 -1.09375 C 6.515625 -1.09375 7.253906 -1.394531 7.765625 -2 C 8.273438 -2.613281 8.53125 -3.554688 8.53125 -4.828125 C 8.53125 -6.109375 8.273438 -7.050781 7.765625 -7.65625 C 7.253906 -8.269531 6.515625 -8.578125 5.546875 -8.578125 C 4.585938 -8.578125 3.847656 -8.269531 3.328125 -7.65625 C 2.816406 -7.050781 2.5625 -6.109375 2.5625 -4.828125 C 2.5625 -3.554688 2.816406 -2.613281 3.328125 -2 C 3.847656 -1.394531 4.585938 -1.09375 5.546875 -1.09375 Z M 5.546875 -1.09375 "/></g></g></g><g fill="#000000" fill-opacity="1"><g transform="translate(75.295144, 347.291565)"><g><path d="M 5.546875 0.1875 C 4.640625 0.1875 3.847656 -0.00390625 3.171875 -0.390625 C 2.492188 -0.773438 1.972656 -1.34375 1.609375 -2.09375 C 1.242188 -2.851562 1.0625 -3.765625 1.0625 -4.828125 C 1.0625 -5.898438 1.242188 -6.8125 1.609375 -7.5625 C 1.972656 -8.320312 2.492188 -8.894531 3.171875 -9.28125 C 3.847656 -9.664062 4.640625 -9.859375 5.546875 -9.859375 C 6.460938 -9.859375 7.257812 -9.664062 7.9375 -9.28125 C 8.613281 -8.894531 9.132812 -8.320312 9.5 -7.5625 C 9.863281 -6.8125 10.046875 -5.898438 10.046875 -4.828125 C 10.046875 -3.765625 9.863281 -2.851562 9.5 -2.09375 C 9.132812 -1.34375 8.613281 -0.773438 7.9375 -0.390625 C 7.257812 -0.00390625 6.460938 0.1875 5.546875 0.1875 Z M 5.546875 -1.09375 C 6.515625 -1.09375 7.253906 -1.394531 7.765625 -2 C 8.273438 -2.613281 8.53125 -3.554688 8.53125 -4.828125 C 8.53125 -6.109375 8.273438 -7.050781 7.765625 -7.65625 C 7.253906 -8.269531 6.515625 -8.578125 5.546875 -8.578125 C 4.585938 -8.578125 3.847656 -8.269531 3.328125 -7.65625 C 2.816406 -7.050781 2.5625 -6.109375 2.5625 -4.828125 C 2.5625 -3.554688 2.816406 -2.613281 3.328125 -2 C 3.847656 -1.394531 4.585938 -1.09375 5.546875 -1.09375 Z M 5.546875 -1.09375 "/></g></g></g><g fill="#000000" fill-opacity="1"><g transform="translate(86.400221, 347.291565)"><g><path d="M 2.15625 0 L 2.15625 -8.515625 L 0.46875 -8.515625 L 0.46875 -9.6875 L 2.15625 -9.6875 C 2.050781 -10.101562 2 -10.503906 2 -10.890625 C 2 -11.515625 2.128906 -12.039062 2.390625 -12.46875 C 2.660156 -12.894531 3.03125 -13.210938 3.5 -13.421875 C 3.976562 -13.640625 4.53125 -13.75 5.15625 -13.75 C 6.113281 -13.75 6.851562 -13.539062 7.375 -13.125 L 6.8125 -12.109375 L 6.640625 -12.078125 C 6.253906 -12.378906 5.757812 -12.53125 5.15625 -12.53125 C 4.582031 -12.53125 4.148438 -12.382812 3.859375 -12.09375 C 3.578125 -11.800781 3.4375 -11.390625 3.4375 -10.859375 C 3.4375 -10.523438 3.488281 -10.132812 3.59375 -9.6875 L 6.671875 -9.6875 L 6.671875 -8.515625 L 3.59375 -8.515625 L 3.59375 0 Z M 2.15625 0 "/></g></g></g><g clip-path="url(#9e7fde3785)"><g clip-path="url(#1257f650d8)"><path fill="#eff6ff" d="M 129.519531 157.808594 L 251.773438 157.808594 L 251.773438 219.414062 L 129.519531 219.414062 Z M 129.519531 157.808594 " fill-opacity="1" fill-rule="nonzero"/></g></g><g clip-path="url(#f69afde454)"><g clip-path="url(#2a484b802e)"><path stroke-linecap="butt" transform="matrix(0.749013, 0, 0, 0.749013, 129.520668, 157.809408)" fill="none" stroke-linejoin="miter" d="M 3.998538 -0.00108749 L 159.265359 -0.00108749 C 160.329259 -0.00108749 161.346223 0.421343 162.091996 1.172332 C 162.842984 1.92332 163.265415 2.940283 163.265415 3.998968 L 163.265415 78.247716 C 163.265415 79.306401 162.842984 80.323364 162.091996 81.074353 C 161.346223 81.825341 160.329259 82.247772 159.265359 82.247772 L 3.998538 82.247772 C 2.939853 82.247772 1.92289 81.825341 1.171902 81.074353 C 0.420913 80.323364 -0.0015176 79.306401 -0.0015176 78.247716 L -0.0015176 3.998968 C -0.0015176 2.940283 0.420913 1.92332 1.171902 1.172332 C 1.92289 0.421343 2.939853 -0.00108749 3.998538 -0.00108749 Z M 3.998538 -0.00108749 " stroke="#1d4ed8" stroke-width="6" stroke-opacity="1" stroke-miterlimit="4"/></g></g><g fill="#000000" fill-opacity="1"><g transform="translate(161.669714, 195.258395)"><g><path d="M 7.09375 0.1875 C 5.96875 0.1875 4.960938 -0.0664062 4.078125 -0.578125 C 3.203125 -1.097656 2.515625 -1.851562 2.015625 -2.84375 C 1.523438 -3.832031 1.28125 -5.019531 1.28125 -6.40625 C 1.28125 -7.800781 1.523438 -8.992188 2.015625 -9.984375 C 2.515625 -10.972656 3.203125 -11.722656 4.078125 -12.234375 C 4.960938 -12.753906 5.96875 -13.015625 7.09375 -13.015625 C 8.289062 -13.015625 9.285156 -12.785156 10.078125 -12.328125 C 10.878906 -11.878906 11.453125 -11.195312 11.796875 -10.28125 L 10.828125 -9.640625 L 10.609375 -9.640625 C 10.265625 -10.367188 9.8125 -10.882812 9.25 -11.1875 C 8.6875 -11.5 7.96875 -11.65625 7.09375 -11.65625 C 6.28125 -11.65625 5.5625 -11.472656 4.9375 -11.109375 C 4.3125 -10.753906 3.8125 -10.1875 3.4375 -9.40625 C 3.070312 -8.625 2.890625 -7.625 2.890625 -6.40625 C 2.890625 -5.195312 3.070312 -4.203125 3.4375 -3.421875 C 3.8125 -2.640625 4.3125 -2.066406 4.9375 -1.703125 C 5.5625 -1.347656 6.28125 -1.171875 7.09375 -1.171875 C 8.019531 -1.171875 8.773438 -1.378906 9.359375 -1.796875 C 9.953125 -2.222656 10.394531 -2.898438 10.6875 -3.828125 L 10.90625 -3.828125 L 11.921875 -3.328125 C 11.609375 -2.191406 11.039062 -1.320312 10.21875 -0.71875 C 9.40625 -0.113281 8.363281 0.1875 7.09375 0.1875 Z M 7.09375 0.1875 "/></g></g></g><g fill="#000000" fill-opacity="1"><g transform="translate(174.248451, 195.258395)"><g><path d="M 2.40625 -11.546875 C 2.101562 -11.546875 1.851562 -11.640625 1.65625 -11.828125 C 1.46875 -12.015625 1.375 -12.257812 1.375 -12.5625 C 1.375 -12.851562 1.46875 -13.09375 1.65625 -13.28125 C 1.851562 -13.46875 2.101562 -13.5625 2.40625 -13.5625 C 2.707031 -13.5625 2.953125 -13.46875 3.140625 -13.28125 C 3.335938 -13.09375 3.4375 -12.851562 3.4375 -12.5625 C 3.4375 -12.257812 3.335938 -12.015625 3.140625 -11.828125 C 2.953125 -11.640625 2.707031 -11.546875 2.40625 -11.546875 Z M 1.6875 0 L 1.6875 -9.671875 L 3.109375 -9.671875 L 3.109375 0 Z M 1.6875 0 "/></g></g></g><g fill="#000000" fill-opacity="1"><g transform="translate(179.046622, 195.258395)"><g><path d="M 1.6875 0 L 1.6875 -9.671875 L 3.046875 -9.671875 L 3.046875 -8.15625 L 3.234375 -8.109375 C 3.679688 -9.210938 4.523438 -9.765625 5.765625 -9.765625 C 6.429688 -9.765625 6.925781 -9.644531 7.25 -9.40625 L 6.890625 -8.1875 L 6.71875 -8.15625 C 6.351562 -8.34375 5.953125 -8.4375 5.515625 -8.4375 C 4.742188 -8.4375 4.148438 -8.144531 3.734375 -7.5625 C 3.316406 -6.976562 3.109375 -6.039062 3.109375 -4.75 L 3.109375 0 Z M 1.6875 0 "/></g></g></g><g fill="#000000" fill-opacity="1"><g transform="translate(186.520181, 195.258395)"><g><path d="M 5.546875 0.1875 C 4.691406 0.1875 3.925781 -0.00390625 3.25 -0.390625 C 2.570312 -0.785156 2.035156 -1.359375 1.640625 -2.109375 C 1.253906 -2.867188 1.0625 -3.773438 1.0625 -4.828125 C 1.0625 -5.890625 1.253906 -6.796875 1.640625 -7.546875 C 2.035156 -8.304688 2.570312 -8.878906 3.25 -9.265625 C 3.925781 -9.660156 4.691406 -9.859375 5.546875 -9.859375 C 6.578125 -9.859375 7.394531 -9.664062 8 -9.28125 C 8.601562 -8.894531 9.039062 -8.378906 9.3125 -7.734375 L 8.328125 -7.03125 L 8.15625 -7.03125 C 7.894531 -7.5625 7.554688 -7.953125 7.140625 -8.203125 C 6.734375 -8.453125 6.203125 -8.578125 5.546875 -8.578125 C 4.953125 -8.578125 4.429688 -8.4375 3.984375 -8.15625 C 3.535156 -7.875 3.1875 -7.453125 2.9375 -6.890625 C 2.6875 -6.328125 2.5625 -5.640625 2.5625 -4.828125 C 2.5625 -4.023438 2.6875 -3.34375 2.9375 -2.78125 C 3.1875 -2.226562 3.535156 -1.804688 3.984375 -1.515625 C 4.429688 -1.234375 4.953125 -1.09375 5.546875 -1.09375 C 6.222656 -1.09375 6.78125 -1.242188 7.21875 -1.546875 C 7.664062 -1.859375 8.015625 -2.335938 8.265625 -2.984375 L 8.453125 -2.984375 L 9.390625 -2.4375 C 9.140625 -1.625 8.691406 -0.984375 8.046875 -0.515625 C 7.398438 -0.046875 6.566406 0.1875 5.546875 0.1875 Z M 5.546875 0.1875 "/></g></g></g><g fill="#000000" fill-opacity="1"><g transform="translate(196.493703, 195.258395)"><g><path d="M 4.78125 0.1875 C 3.6875 0.1875 2.867188 -0.0976562 2.328125 -0.671875 C 1.796875 -1.253906 1.53125 -2.109375 1.53125 -3.234375 L 1.53125 -9.671875 L 2.96875 -9.671875 L 2.96875 -3.265625 C 2.96875 -1.796875 3.65625 -1.0625 5.03125 -1.0625 C 5.914062 -1.0625 6.609375 -1.347656 7.109375 -1.921875 C 7.617188 -2.492188 7.875 -3.425781 7.875 -4.71875 L 7.875 -9.671875 L 9.3125 -9.671875 L 9.3125 0 L 7.953125 0 L 7.953125 -1.515625 L 7.78125 -1.5625 C 7.445312 -0.96875 7.046875 -0.523438 6.578125 -0.234375 C 6.109375 0.046875 5.507812 0.1875 4.78125 0.1875 Z M 4.78125 0.1875 "/></g></g></g><g fill="#000000" fill-opacity="1"><g transform="translate(207.484753, 195.258395)"><g><path d="M 2.40625 -11.546875 C 2.101562 -11.546875 1.851562 -11.640625 1.65625 -11.828125 C 1.46875 -12.015625 1.375 -12.257812 1.375 -12.5625 C 1.375 -12.851562 1.46875 -13.09375 1.65625 -13.28125 C 1.851562 -13.46875 2.101562 -13.5625 2.40625 -13.5625 C 2.707031 -13.5625 2.953125 -13.46875 3.140625 -13.28125 C 3.335938 -13.09375 3.4375 -12.851562 3.4375 -12.5625 C 3.4375 -12.257812 3.335938 -12.015625 3.140625 -11.828125 C 2.953125 -11.640625 2.707031 -11.546875 2.40625 -11.546875 Z M 1.6875 0 L 1.6875 -9.671875 L 3.109375 -9.671875 L 3.109375 0 Z M 1.6875 0 "/></g></g></g><g fill="#000000" fill-opacity="1"><g transform="translate(212.282923, 195.258395)"><g><path d="M 6.546875 -1.53125 L 7 -0.515625 C 6.769531 -0.285156 6.46875 -0.113281 6.09375 0 C 5.726562 0.125 5.328125 0.1875 4.890625 0.1875 C 3.046875 0.1875 2.125 -0.75 2.125 -2.625 L 2.125 -8.515625 L 0.4375 -8.515625 L 0.4375 -9.6875 L 2.125 -9.6875 L 2.125 -11.734375 L 3.546875 -11.96875 L 3.546875 -9.6875 L 6.671875 -9.6875 L 6.671875 -8.515625 L 3.546875 -8.515625 L 3.546875 -2.765625 C 3.546875 -1.648438 4.03125 -1.09375 5 -1.09375 C 5.53125 -1.09375 5.984375 -1.238281 6.359375 -1.53125 Z M 6.546875 -1.53125 "/></g></g></g><g clip-path="url(#cd24278918)"><g clip-path="url(#069affbba5)"><path fill="#eff6ff" d="M 259.6875 307.867188 L 381.910156 307.867188 L 381.910156 370.699219 L 259.6875 370.699219 Z M 259.6875 307.867188 " fill-opacity="1" fill-rule="nonzero"/></g></g><g clip-path="url(#d49003313c)"><g clip-path="url(#e2f9025dcc)"><path stroke-linecap="butt" transform="matrix(0.749013, 0, 0, 0.749013, 259.688478, 307.868988)" fill="none" stroke-linejoin="miter" d="M 3.99875 -0.0024036 L 159.260346 -0.0024036 C 160.319031 -0.0024036 161.335994 0.420027 162.086982 1.171015 C 162.83797 1.922004 163.260401 2.938967 163.260401 3.997652 L 163.260401 79.873536 C 163.260401 80.937436 162.83797 81.9544 162.086982 82.705388 C 161.335994 83.451161 160.319031 83.873592 159.260346 83.873592 L 3.99875 83.873592 C 2.940065 83.873592 1.923102 83.451161 1.172114 82.705388 C 0.421125 81.9544 -0.0013055 80.937436 -0.0013055 79.873536 L -0.0013055 3.997652 C -0.0013055 2.938967 0.421125 1.922004 1.172114 1.171015 C 1.923102 0.420027 2.940065 -0.0024036 3.99875 -0.0024036 Z M 3.99875 -0.0024036 " stroke="#1d4ed8" stroke-width="6" stroke-opacity="1" stroke-miterlimit="4"/></g></g><g fill="#000000" fill-opacity="1"><g transform="translate(294.655745, 333.335433)"><g><path d="M 5.609375 0.1875 C 4.796875 0.1875 4.066406 0.078125 3.421875 -0.140625 C 2.785156 -0.359375 2.253906 -0.644531 1.828125 -1 C 1.398438 -1.363281 1.082031 -1.757812 0.875 -2.1875 L 1.703125 -3.1875 L 1.921875 -3.1875 C 2.710938 -1.84375 3.941406 -1.171875 5.609375 -1.171875 C 6.566406 -1.171875 7.28125 -1.375 7.75 -1.78125 C 8.226562 -2.1875 8.46875 -2.75 8.46875 -3.46875 C 8.46875 -3.882812 8.390625 -4.238281 8.234375 -4.53125 C 8.078125 -4.820312 7.820312 -5.070312 7.46875 -5.28125 C 7.113281 -5.488281 6.628906 -5.671875 6.015625 -5.828125 L 4.515625 -6.1875 C 3.390625 -6.457031 2.5625 -6.882812 2.03125 -7.46875 C 1.507812 -8.0625 1.25 -8.8125 1.25 -9.71875 C 1.25 -10.351562 1.410156 -10.921875 1.734375 -11.421875 C 2.066406 -11.921875 2.546875 -12.3125 3.171875 -12.59375 C 3.804688 -12.875 4.5625 -13.015625 5.4375 -13.015625 C 6.40625 -13.015625 7.21875 -12.878906 7.875 -12.609375 C 8.539062 -12.335938 9.070312 -11.925781 9.46875 -11.375 L 8.734375 -10.390625 L 8.515625 -10.390625 C 8.148438 -10.835938 7.710938 -11.164062 7.203125 -11.375 C 6.703125 -11.59375 6.113281 -11.703125 5.4375 -11.703125 C 4.550781 -11.703125 3.878906 -11.523438 3.421875 -11.171875 C 2.972656 -10.828125 2.75 -10.351562 2.75 -9.75 C 2.75 -9.164062 2.914062 -8.703125 3.25 -8.359375 C 3.582031 -8.023438 4.144531 -7.765625 4.9375 -7.578125 L 6.46875 -7.203125 C 7.707031 -6.910156 8.609375 -6.460938 9.171875 -5.859375 C 9.734375 -5.253906 10.015625 -4.476562 10.015625 -3.53125 C 10.015625 -2.8125 9.847656 -2.171875 9.515625 -1.609375 C 9.191406 -1.046875 8.695312 -0.601562 8.03125 -0.28125 C 7.375 0.03125 6.566406 0.1875 5.609375 0.1875 Z M 5.609375 0.1875 "/></g></g></g><g fill="#000000" fill-opacity="1"><g transform="translate(305.646794, 333.335433)"><g><path d="M 1.6875 0 L 1.6875 -9.671875 L 3.046875 -9.671875 L 3.046875 -8.25 L 3.234375 -8.21875 C 3.554688 -8.757812 3.945312 -9.164062 4.40625 -9.4375 C 4.875 -9.71875 5.4375 -9.859375 6.09375 -9.859375 C 6.84375 -9.859375 7.421875 -9.71875 7.828125 -9.4375 C 8.234375 -9.15625 8.550781 -8.695312 8.78125 -8.0625 L 8.96875 -8.0625 C 9.300781 -8.65625 9.710938 -9.101562 10.203125 -9.40625 C 10.691406 -9.707031 11.289062 -9.859375 12 -9.859375 C 13 -9.859375 13.738281 -9.585938 14.21875 -9.046875 C 14.707031 -8.515625 14.953125 -7.695312 14.953125 -6.59375 L 14.953125 0 L 13.53125 0 L 13.53125 -6.5625 C 13.53125 -7.257812 13.378906 -7.773438 13.078125 -8.109375 C 12.785156 -8.441406 12.3125 -8.609375 11.65625 -8.609375 C 10.882812 -8.609375 10.253906 -8.328125 9.765625 -7.765625 C 9.273438 -7.210938 9.03125 -6.289062 9.03125 -5 L 9.03125 0 L 7.609375 0 L 7.609375 -6.5625 C 7.609375 -7.257812 7.457031 -7.773438 7.15625 -8.109375 C 6.863281 -8.441406 6.390625 -8.609375 5.734375 -8.609375 C 4.960938 -8.609375 4.332031 -8.335938 3.84375 -7.796875 C 3.351562 -7.253906 3.109375 -6.375 3.109375 -5.15625 L 3.109375 0 Z M 1.6875 0 "/></g></g></g><g fill="#000000" fill-opacity="1"><g transform="translate(322.137746, 333.335433)"><g><path d="M 3.984375 0.1875 C 3.035156 0.1875 2.289062 -0.0625 1.75 -0.5625 C 1.21875 -1.0625 0.953125 -1.769531 0.953125 -2.6875 C 0.953125 -3.257812 1.070312 -3.742188 1.3125 -4.140625 C 1.550781 -4.535156 1.914062 -4.859375 2.40625 -5.109375 C 2.90625 -5.359375 3.554688 -5.550781 4.359375 -5.6875 C 5.054688 -5.800781 5.585938 -5.929688 5.953125 -6.078125 C 6.328125 -6.222656 6.578125 -6.382812 6.703125 -6.5625 C 6.828125 -6.75 6.890625 -6.976562 6.890625 -7.25 C 6.890625 -7.6875 6.738281 -8.019531 6.4375 -8.25 C 6.132812 -8.488281 5.648438 -8.609375 4.984375 -8.609375 C 4.359375 -8.609375 3.820312 -8.488281 3.375 -8.25 C 2.925781 -8.007812 2.515625 -7.648438 2.140625 -7.171875 L 1.96875 -7.171875 L 1.265625 -8.15625 C 1.671875 -8.675781 2.1875 -9.085938 2.8125 -9.390625 C 3.445312 -9.703125 4.171875 -9.859375 4.984375 -9.859375 C 6.117188 -9.859375 6.957031 -9.609375 7.5 -9.109375 C 8.039062 -8.609375 8.3125 -7.914062 8.3125 -7.03125 L 8.3125 -1.90625 C 8.3125 -1.363281 8.539062 -1.09375 9 -1.09375 C 9.15625 -1.09375 9.300781 -1.117188 9.4375 -1.171875 L 9.5625 -1.140625 L 9.734375 -0.15625 C 9.628906 -0.0820312 9.488281 -0.03125 9.3125 0 C 9.132812 0.0390625 8.957031 0.0625 8.78125 0.0625 C 8.25 0.0625 7.847656 -0.0507812 7.578125 -0.28125 C 7.304688 -0.507812 7.128906 -0.851562 7.046875 -1.3125 L 6.875 -1.328125 C 6.59375 -0.816406 6.21875 -0.4375 5.75 -0.1875 C 5.28125 0.0625 4.691406 0.1875 3.984375 0.1875 Z M 4.3125 -0.953125 C 4.84375 -0.953125 5.304688 -1.078125 5.703125 -1.328125 C 6.097656 -1.578125 6.398438 -1.925781 6.609375 -2.375 C 6.828125 -2.820312 6.9375 -3.34375 6.9375 -3.9375 L 6.9375 -5.171875 L 6.765625 -5.203125 C 6.546875 -5.046875 6.28125 -4.914062 5.96875 -4.8125 C 5.664062 -4.71875 5.234375 -4.628906 4.671875 -4.546875 C 4.109375 -4.472656 3.660156 -4.351562 3.328125 -4.1875 C 3.003906 -4.03125 2.769531 -3.832031 2.625 -3.59375 C 2.488281 -3.351562 2.421875 -3.050781 2.421875 -2.6875 C 2.421875 -2.125 2.585938 -1.691406 2.921875 -1.390625 C 3.253906 -1.097656 3.71875 -0.953125 4.3125 -0.953125 Z M 4.3125 -0.953125 "/></g></g></g><g fill="#000000" fill-opacity="1"><g transform="translate(332.146356, 333.335433)"><g><path d="M 1.6875 0 L 1.6875 -9.671875 L 3.046875 -9.671875 L 3.046875 -8.15625 L 3.234375 -8.109375 C 3.679688 -9.210938 4.523438 -9.765625 5.765625 -9.765625 C 6.429688 -9.765625 6.925781 -9.644531 7.25 -9.40625 L 6.890625 -8.1875 L 6.71875 -8.15625 C 6.351562 -8.34375 5.953125 -8.4375 5.515625 -8.4375 C 4.742188 -8.4375 4.148438 -8.144531 3.734375 -7.5625 C 3.316406 -6.976562 3.109375 -6.039062 3.109375 -4.75 L 3.109375 0 Z M 1.6875 0 "/></g></g></g><g fill="#000000" fill-opacity="1"><g transform="translate(339.619915, 333.335433)"><g><path d="M 6.546875 -1.53125 L 7 -0.515625 C 6.769531 -0.285156 6.46875 -0.113281 6.09375 0 C 5.726562 0.125 5.328125 0.1875 4.890625 0.1875 C 3.046875 0.1875 2.125 -0.75 2.125 -2.625 L 2.125 -8.515625 L 0.4375 -8.515625 L 0.4375 -9.6875 L 2.125 -9.6875 L 2.125 -11.734375 L 3.546875 -11.96875 L 3.546875 -9.6875 L 6.671875 -9.6875 L 6.671875 -8.515625 L 3.546875 -8.515625 L 3.546875 -2.765625 C 3.546875 -1.648438 4.03125 -1.09375 5 -1.09375 C 5.53125 -1.09375 5.984375 -1.238281 6.359375 -1.53125 Z M 6.546875 -1.53125 "/></g></g></g><g fill="#000000" fill-opacity="1"><g transform="translate(277.83806, 358.052865)"><g><path d="M 7.09375 0.1875 C 5.96875 0.1875 4.960938 -0.0664062 4.078125 -0.578125 C 3.203125 -1.097656 2.515625 -1.851562 2.015625 -2.84375 C 1.523438 -3.832031 1.28125 -5.019531 1.28125 -6.40625 C 1.28125 -7.800781 1.523438 -8.992188 2.015625 -9.984375 C 2.515625 -10.972656 3.203125 -11.722656 4.078125 -12.234375 C 4.960938 -12.753906 5.96875 -13.015625 7.09375 -13.015625 C 8.289062 -13.015625 9.285156 -12.785156 10.078125 -12.328125 C 10.878906 -11.878906 11.453125 -11.195312 11.796875 -10.28125 L 10.828125 -9.640625 L 10.609375 -9.640625 C 10.265625 -10.367188 9.8125 -10.882812 9.25 -11.1875 C 8.6875 -11.5 7.96875 -11.65625 7.09375 -11.65625 C 6.28125 -11.65625 5.5625 -11.472656 4.9375 -11.109375 C 4.3125 -10.753906 3.8125 -10.1875 3.4375 -9.40625 C 3.070312 -8.625 2.890625 -7.625 2.890625 -6.40625 C 2.890625 -5.195312 3.070312 -4.203125 3.4375 -3.421875 C 3.8125 -2.640625 4.3125 -2.066406 4.9375 -1.703125 C 5.5625 -1.347656 6.28125 -1.171875 7.09375 -1.171875 C 8.019531 -1.171875 8.773438 -1.378906 9.359375 -1.796875 C 9.953125 -2.222656 10.394531 -2.898438 10.6875 -3.828125 L 10.90625 -3.828125 L 11.921875 -3.328125 C 11.609375 -2.191406 11.039062 -1.320312 10.21875 -0.71875 C 9.40625 -0.113281 8.363281 0.1875 7.09375 0.1875 Z M 7.09375 0.1875 "/></g></g></g><g fill="#000000" fill-opacity="1"><g transform="translate(290.416797, 358.052865)"><g><path d="M 5.546875 0.1875 C 4.640625 0.1875 3.847656 -0.00390625 3.171875 -0.390625 C 2.492188 -0.773438 1.972656 -1.34375 1.609375 -2.09375 C 1.242188 -2.851562 1.0625 -3.765625 1.0625 -4.828125 C 1.0625 -5.898438 1.242188 -6.8125 1.609375 -7.5625 C 1.972656 -8.320312 2.492188 -8.894531 3.171875 -9.28125 C 3.847656 -9.664062 4.640625 -9.859375 5.546875 -9.859375 C 6.460938 -9.859375 7.257812 -9.664062 7.9375 -9.28125 C 8.613281 -8.894531 9.132812 -8.320312 9.5 -7.5625 C 9.863281 -6.8125 10.046875 -5.898438 10.046875 -4.828125 C 10.046875 -3.765625 9.863281 -2.851562 9.5 -2.09375 C 9.132812 -1.34375 8.613281 -0.773438 7.9375 -0.390625 C 7.257812 -0.00390625 6.460938 0.1875 5.546875 0.1875 Z M 5.546875 -1.09375 C 6.515625 -1.09375 7.253906 -1.394531 7.765625 -2 C 8.273438 -2.613281 8.53125 -3.554688 8.53125 -4.828125 C 8.53125 -6.109375 8.273438 -7.050781 7.765625 -7.65625 C 7.253906 -8.269531 6.515625 -8.578125 5.546875 -8.578125 C 4.585938 -8.578125 3.847656 -8.269531 3.328125 -7.65625 C 2.816406 -7.050781 2.5625 -6.109375 2.5625 -4.828125 C 2.5625 -3.554688 2.816406 -2.613281 3.328125 -2 C 3.847656 -1.394531 4.585938 -1.09375 5.546875 -1.09375 Z M 5.546875 -1.09375 "/></g></g></g><g fill="#000000" fill-opacity="1"><g transform="translate(301.521874, 358.052865)"><g><path d="M 1.6875 0 L 1.6875 -9.671875 L 3.046875 -9.671875 L 3.046875 -8.15625 L 3.234375 -8.109375 C 3.554688 -8.679688 3.96875 -9.113281 4.46875 -9.40625 C 4.96875 -9.707031 5.578125 -9.859375 6.296875 -9.859375 C 7.453125 -9.859375 8.289062 -9.5625 8.8125 -8.96875 C 9.34375 -8.375 9.609375 -7.460938 9.609375 -6.234375 L 9.609375 0 L 8.171875 0 L 8.171875 -6.1875 C 8.171875 -6.78125 8.097656 -7.253906 7.953125 -7.609375 C 7.804688 -7.960938 7.578125 -8.21875 7.265625 -8.375 C 6.953125 -8.53125 6.539062 -8.609375 6.03125 -8.609375 C 5.15625 -8.609375 4.445312 -8.320312 3.90625 -7.75 C 3.375 -7.175781 3.109375 -6.25 3.109375 -4.96875 L 3.109375 0 Z M 1.6875 0 "/></g></g></g><g fill="#000000" fill-opacity="1"><g transform="translate(312.662038, 358.052865)"><g><path d="M 6.546875 -1.53125 L 7 -0.515625 C 6.769531 -0.285156 6.46875 -0.113281 6.09375 0 C 5.726562 0.125 5.328125 0.1875 4.890625 0.1875 C 3.046875 0.1875 2.125 -0.75 2.125 -2.625 L 2.125 -8.515625 L 0.4375 -8.515625 L 0.4375 -9.6875 L 2.125 -9.6875 L 2.125 -11.734375 L 3.546875 -11.96875 L 3.546875 -9.6875 L 6.671875 -9.6875 L 6.671875 -8.515625 L 3.546875 -8.515625 L 3.546875 -2.765625 C 3.546875 -1.648438 4.03125 -1.09375 5 -1.09375 C 5.53125 -1.09375 5.984375 -1.238281 6.359375 -1.53125 Z M 6.546875 -1.53125 "/></g></g></g><g fill="#000000" fill-opacity="1"><g transform="translate(320.030335, 358.052865)"><g><path d="M 1.6875 0 L 1.6875 -9.671875 L 3.046875 -9.671875 L 3.046875 -8.15625 L 3.234375 -8.109375 C 3.679688 -9.210938 4.523438 -9.765625 5.765625 -9.765625 C 6.429688 -9.765625 6.925781 -9.644531 7.25 -9.40625 L 6.890625 -8.1875 L 6.71875 -8.15625 C 6.351562 -8.34375 5.953125 -8.4375 5.515625 -8.4375 C 4.742188 -8.4375 4.148438 -8.144531 3.734375 -7.5625 C 3.316406 -6.976562 3.109375 -6.039062 3.109375 -4.75 L 3.109375 0 Z M 1.6875 0 "/></g></g></g><g fill="#000000" fill-opacity="1"><g transform="translate(327.503894, 358.052865)"><g><path d="M 3.984375 0.1875 C 3.035156 0.1875 2.289062 -0.0625 1.75 -0.5625 C 1.21875 -1.0625 0.953125 -1.769531 0.953125 -2.6875 C 0.953125 -3.257812 1.070312 -3.742188 1.3125 -4.140625 C 1.550781 -4.535156 1.914062 -4.859375 2.40625 -5.109375 C 2.90625 -5.359375 3.554688 -5.550781 4.359375 -5.6875 C 5.054688 -5.800781 5.585938 -5.929688 5.953125 -6.078125 C 6.328125 -6.222656 6.578125 -6.382812 6.703125 -6.5625 C 6.828125 -6.75 6.890625 -6.976562 6.890625 -7.25 C 6.890625 -7.6875 6.738281 -8.019531 6.4375 -8.25 C 6.132812 -8.488281 5.648438 -8.609375 4.984375 -8.609375 C 4.359375 -8.609375 3.820312 -8.488281 3.375 -8.25 C 2.925781 -8.007812 2.515625 -7.648438 2.140625 -7.171875 L 1.96875 -7.171875 L 1.265625 -8.15625 C 1.671875 -8.675781 2.1875 -9.085938 2.8125 -9.390625 C 3.445312 -9.703125 4.171875 -9.859375 4.984375 -9.859375 C 6.117188 -9.859375 6.957031 -9.609375 7.5 -9.109375 C 8.039062 -8.609375 8.3125 -7.914062 8.3125 -7.03125 L 8.3125 -1.90625 C 8.3125 -1.363281 8.539062 -1.09375 9 -1.09375 C 9.15625 -1.09375 9.300781 -1.117188 9.4375 -1.171875 L 9.5625 -1.140625 L 9.734375 -0.15625 C 9.628906 -0.0820312 9.488281 -0.03125 9.3125 0 C 9.132812 0.0390625 8.957031 0.0625 8.78125 0.0625 C 8.25 0.0625 7.847656 -0.0507812 7.578125 -0.28125 C 7.304688 -0.507812 7.128906 -0.851562 7.046875 -1.3125 L 6.875 -1.328125 C 6.59375 -0.816406 6.21875 -0.4375 5.75 -0.1875 C 5.28125 0.0625 4.691406 0.1875 3.984375 0.1875 Z M 4.3125 -0.953125 C 4.84375 -0.953125 5.304688 -1.078125 5.703125 -1.328125 C 6.097656 -1.578125 6.398438 -1.925781 6.609375 -2.375 C 6.828125 -2.820312 6.9375 -3.34375 6.9375 -3.9375 L 6.9375 -5.171875 L 6.765625 -5.203125 C 6.546875 -5.046875 6.28125 -4.914062 5.96875 -4.8125 C 5.664062 -4.71875 5.234375 -4.628906 4.671875 -4.546875 C 4.109375 -4.472656 3.660156 -4.351562 3.328125 -4.1875 C 3.003906 -4.03125 2.769531 -3.832031 2.625 -3.59375 C 2.488281 -3.351562 2.421875 -3.050781 2.421875 -2.6875 C 2.421875 -2.125 2.585938 -1.691406 2.921875 -1.390625 C 3.253906 -1.097656 3.71875 -0.953125 4.3125 -0.953125 Z M 4.3125 -0.953125 "/></g></g></g><g fill="#000000" fill-opacity="1"><g transform="translate(337.512504, 358.052865)"><g><path d="M 5.546875 0.1875 C 4.691406 0.1875 3.925781 -0.00390625 3.25 -0.390625 C 2.570312 -0.785156 2.035156 -1.359375 1.640625 -2.109375 C 1.253906 -2.867188 1.0625 -3.773438 1.0625 -4.828125 C 1.0625 -5.890625 1.253906 -6.796875 1.640625 -7.546875 C 2.035156 -8.304688 2.570312 -8.878906 3.25 -9.265625 C 3.925781 -9.660156 4.691406 -9.859375 5.546875 -9.859375 C 6.578125 -9.859375 7.394531 -9.664062 8 -9.28125 C 8.601562 -8.894531 9.039062 -8.378906 9.3125 -7.734375 L 8.328125 -7.03125 L 8.15625 -7.03125 C 7.894531 -7.5625 7.554688 -7.953125 7.140625 -8.203125 C 6.734375 -8.453125 6.203125 -8.578125 5.546875 -8.578125 C 4.953125 -8.578125 4.429688 -8.4375 3.984375 -8.15625 C 3.535156 -7.875 3.1875 -7.453125 2.9375 -6.890625 C 2.6875 -6.328125 2.5625 -5.640625 2.5625 -4.828125 C 2.5625 -4.023438 2.6875 -3.34375 2.9375 -2.78125 C 3.1875 -2.226562 3.535156 -1.804688 3.984375 -1.515625 C 4.429688 -1.234375 4.953125 -1.09375 5.546875 -1.09375 C 6.222656 -1.09375 6.78125 -1.242188 7.21875 -1.546875 C 7.664062 -1.859375 8.015625 -2.335938 8.265625 -2.984375 L 8.453125 -2.984375 L 9.390625 -2.4375 C 9.140625 -1.625 8.691406 -0.984375 8.046875 -0.515625 C 7.398438 -0.046875 6.566406 0.1875 5.546875 0.1875 Z M 5.546875 0.1875 "/></g></g></g><g fill="#000000" fill-opacity="1"><g transform="translate(347.486026, 358.052865)"><g><path d="M 6.546875 -1.53125 L 7 -0.515625 C 6.769531 -0.285156 6.46875 -0.113281 6.09375 0 C 5.726562 0.125 5.328125 0.1875 4.890625 0.1875 C 3.046875 0.1875 2.125 -0.75 2.125 -2.625 L 2.125 -8.515625 L 0.4375 -8.515625 L 0.4375 -9.6875 L 2.125 -9.6875 L 2.125 -11.734375 L 3.546875 -11.96875 L 3.546875 -9.6875 L 6.671875 -9.6875 L 6.671875 -8.515625 L 3.546875 -8.515625 L 3.546875 -2.765625 C 3.546875 -1.648438 4.03125 -1.09375 5 -1.09375 C 5.53125 -1.09375 5.984375 -1.238281 6.359375 -1.53125 Z M 6.546875 -1.53125 "/></g></g></g><g fill="#000000" fill-opacity="1"><g transform="translate(354.854324, 358.052865)"><g><path d="M 4.40625 0.1875 C 3.800781 0.1875 3.238281 0.109375 2.71875 -0.046875 C 2.207031 -0.210938 1.769531 -0.4375 1.40625 -0.71875 C 1.050781 -1 0.800781 -1.316406 0.65625 -1.671875 L 1.5 -2.546875 L 1.6875 -2.546875 C 2 -2.066406 2.375 -1.703125 2.8125 -1.453125 C 3.257812 -1.210938 3.789062 -1.09375 4.40625 -1.09375 C 5.125 -1.09375 5.664062 -1.234375 6.03125 -1.515625 C 6.40625 -1.796875 6.59375 -2.179688 6.59375 -2.671875 C 6.59375 -3.054688 6.476562 -3.367188 6.25 -3.609375 C 6.03125 -3.859375 5.671875 -4.046875 5.171875 -4.171875 L 3.53125 -4.578125 C 2.664062 -4.785156 2.03125 -5.117188 1.625 -5.578125 C 1.226562 -6.035156 1.03125 -6.601562 1.03125 -7.28125 C 1.03125 -7.800781 1.160156 -8.253906 1.421875 -8.640625 C 1.691406 -9.035156 2.082031 -9.335938 2.59375 -9.546875 C 3.101562 -9.753906 3.703125 -9.859375 4.390625 -9.859375 C 5.285156 -9.859375 5.988281 -9.734375 6.5 -9.484375 C 7.007812 -9.234375 7.40625 -8.890625 7.6875 -8.453125 L 6.890625 -7.65625 L 6.71875 -7.65625 C 6.40625 -8.007812 6.066406 -8.265625 5.703125 -8.421875 C 5.335938 -8.585938 4.898438 -8.671875 4.390625 -8.671875 C 3.753906 -8.671875 3.265625 -8.554688 2.921875 -8.328125 C 2.585938 -8.097656 2.421875 -7.765625 2.421875 -7.328125 C 2.421875 -6.941406 2.539062 -6.628906 2.78125 -6.390625 C 3.019531 -6.148438 3.4375 -5.957031 4.03125 -5.8125 L 5.640625 -5.421875 C 6.484375 -5.222656 7.09375 -4.890625 7.46875 -4.421875 C 7.84375 -3.960938 8.03125 -3.382812 8.03125 -2.6875 C 8.03125 -2.125 7.894531 -1.625 7.625 -1.1875 C 7.351562 -0.757812 6.945312 -0.421875 6.40625 -0.171875 C 5.863281 0.0664062 5.195312 0.1875 4.40625 0.1875 Z M 4.40625 0.1875 "/></g></g></g><path stroke-linecap="round" transform="matrix(0.530505, 0.528758, -0.528758, 0.530505, 223.733496, 234.463847)" fill="none" stroke-linejoin="miter" d="M 1.500187 1.503482 L 98.486842 1.50121 " stroke="#000000" stroke-width="3" stroke-opacity="1" stroke-miterlimit="4"/><path stroke-linecap="round" transform="matrix(0.530505, 0.528758, -0.528758, 0.530505, 223.733496, 234.463847)" fill-opacity="1" fill="#000000" fill-rule="nonzero" stroke-linejoin="round" d="M 99.984104 -3.002696 L 105.983945 1.502514 L 99.987694 5.998999 Z M 99.984104 -3.002696 " stroke="#000000" stroke-width="3" stroke-opacity="1" stroke-miterlimit="4"/><path stroke-linecap="round" transform="matrix(-0.54511, 0.513689, -0.513689, -0.54511, 151.818802, 235.285084)" fill="none" stroke-linejoin="miter" d="M 1.500433 1.499805 L 101.514369 1.501677 " stroke="#000000" stroke-width="3" stroke-opacity="1" stroke-miterlimit="4"/><path stroke-linecap="round" transform="matrix(-0.54511, 0.513689, -0.513689, -0.54511, 151.818802, 235.285084)" fill-opacity="1" fill="#000000" fill-rule="nonzero" stroke-linejoin="round" d="M 103.011474 -2.999454 L 109.014619 1.496768 L 103.016562 5.998655 Z M 103.011474 -2.999454 " stroke="#000000" stroke-width="3" stroke-opacity="1" stroke-miterlimit="4"/></svg>