<svg xmlns="http://www.w3.org/2000/svg" xmlns:xlink="http://www.w3.org/1999/xlink" width="687" zoomAndPan="magnify" viewBox="0 0 515.25 610.499981" height="814" preserveAspectRatio="xMidYMid meet" version="1.0"><defs><g/><clipPath id="c650bdab1f"><path d="M 0 0.195312 L 514.5 0.195312 L 514.5 609.808594 L 0 609.808594 Z M 0 0.195312 " clip-rule="nonzero"/></clipPath><clipPath id="314c5c2034"><path d="M 15.234375 15.207031 L 137.710938 15.207031 L 137.710938 76.804688 L 15.234375 76.804688 Z M 15.234375 15.207031 " clip-rule="nonzero"/></clipPath><clipPath id="9a483cd53c"><path d="M 18.230469 15.207031 L 134.519531 15.207031 C 135.3125 15.207031 136.074219 15.523438 136.636719 16.082031 C 137.199219 16.644531 137.515625 17.40625 137.515625 18.203125 L 137.515625 73.808594 C 137.515625 74.601562 137.199219 75.367188 136.636719 75.925781 C 136.074219 76.488281 135.3125 76.804688 134.519531 76.804688 L 18.230469 76.804688 C 17.4375 76.804688 16.675781 76.488281 16.113281 75.925781 C 15.550781 75.367188 15.234375 74.601562 15.234375 73.808594 L 15.234375 18.203125 C 15.234375 17.40625 15.550781 16.644531 16.113281 16.082031 C 16.675781 15.523438 17.4375 15.207031 18.230469 15.207031 Z M 18.230469 15.207031 " clip-rule="nonzero"/></clipPath><clipPath id="3ac745fb7f"><path d="M 15.234375 15.207031 L 137.308594 15.207031 L 137.308594 76.617188 L 15.234375 76.617188 Z M 15.234375 15.207031 " clip-rule="nonzero"/></clipPath><clipPath id="3910cd6f37"><path d="M 18.230469 15.207031 L 134.511719 15.207031 C 135.304688 15.207031 136.066406 15.523438 136.628906 16.085938 C 137.191406 16.648438 137.507812 17.410156 137.507812 18.203125 L 137.507812 73.808594 C 137.507812 74.601562 137.191406 75.363281 136.628906 75.925781 C 136.066406 76.488281 135.304688 76.800781 134.511719 76.800781 L 18.230469 76.800781 C 17.4375 76.800781 16.675781 76.488281 16.113281 75.925781 C 15.550781 75.363281 15.234375 74.601562 15.234375 73.808594 L 15.234375 18.203125 C 15.234375 17.410156 15.550781 16.648438 16.113281 16.085938 C 16.675781 15.523438 17.4375 15.207031 18.230469 15.207031 Z M 18.230469 15.207031 " clip-rule="nonzero"/></clipPath><clipPath id="229120d466"><path d="M 137.1875 162 L 376 162 L 376 246.089844 L 137.1875 246.089844 Z M 137.1875 162 " clip-rule="nonzero"/></clipPath><clipPath id="f624ed3b77"><path d="M 140.511719 162.214844 L 372.964844 162.214844 C 373.757812 162.214844 374.519531 162.53125 375.082031 163.089844 C 375.644531 163.652344 375.960938 164.414062 375.960938 165.210938 L 375.960938 243.097656 C 375.960938 243.890625 375.644531 244.652344 375.082031 245.214844 C 374.519531 245.777344 373.757812 246.089844 372.964844 246.089844 L 140.511719 246.089844 C 139.714844 246.089844 138.953125 245.777344 138.390625 245.214844 C 137.828125 244.652344 137.515625 243.890625 137.515625 243.097656 L 137.515625 165.210938 C 137.515625 164.414062 137.828125 163.652344 138.390625 163.089844 C 138.953125 162.53125 139.714844 162.214844 140.511719 162.214844 Z M 140.511719 162.214844 " clip-rule="nonzero"/></clipPath><clipPath id="2f2f54a85a"><path d="M 137.515625 162.214844 L 375.667969 162.214844 L 375.667969 246.089844 L 137.515625 246.089844 Z M 137.515625 162.214844 " clip-rule="nonzero"/></clipPath><clipPath id="e58591338f"><path d="M 140.507812 162.214844 L 372.953125 162.214844 C 373.746094 162.214844 374.507812 162.53125 375.070312 163.09375 C 375.632812 163.65625 375.949219 164.417969 375.949219 165.210938 L 375.949219 243.09375 C 375.949219 243.886719 375.632812 244.652344 375.070312 245.210938 C 374.507812 245.773438 373.746094 246.089844 372.953125 246.089844 L 140.507812 246.089844 C 139.714844 246.089844 138.953125 245.773438 138.390625 245.210938 C 137.828125 244.652344 137.515625 243.886719 137.515625 243.09375 L 137.515625 165.210938 C 137.515625 164.417969 137.828125 163.65625 138.390625 163.09375 C 138.953125 162.53125 139.714844 162.214844 140.507812 162.214844 Z M 140.507812 162.214844 " clip-rule="nonzero"/></clipPath><clipPath id="c28ed1ff83"><path d="M 179.277344 512.246094 L 335 512.246094 L 335 594.792969 L 179.277344 594.792969 Z M 179.277344 512.246094 " clip-rule="nonzero"/></clipPath><clipPath id="d2eaaa2c9f"><path d="M 182.273438 512.246094 L 331.710938 512.246094 C 332.503906 512.246094 333.265625 512.5625 333.828125 513.125 C 334.390625 513.683594 334.703125 514.445312 334.703125 515.242188 L 334.703125 591.800781 C 334.703125 592.59375 334.390625 593.355469 333.828125 593.917969 C 333.265625 594.480469 332.503906 594.792969 331.710938 594.792969 L 182.273438 594.792969 C 181.480469 594.792969 180.71875 594.480469 180.15625 593.917969 C 179.59375 593.355469 179.277344 592.59375 179.277344 591.800781 L 179.277344 515.242188 C 179.277344 514.445312 179.59375 513.683594 180.15625 513.125 C 180.71875 512.5625 181.480469 512.246094 182.273438 512.246094 Z M 182.273438 512.246094 " clip-rule="nonzero"/></clipPath><clipPath id="f3d73c80b0"><path d="M 179.28125 512.246094 L 335 512.246094 L 335 594.625 L 179.28125 594.625 Z M 179.28125 512.246094 " clip-rule="nonzero"/></clipPath><clipPath id="aed6334018"><path d="M 182.277344 512.246094 L 331.703125 512.246094 C 332.496094 512.246094 333.257812 512.5625 333.820312 513.125 C 334.382812 513.683594 334.699219 514.445312 334.699219 515.242188 L 334.699219 591.792969 C 334.699219 592.589844 334.382812 593.351562 333.820312 593.914062 C 333.257812 594.472656 332.496094 594.789062 331.703125 594.789062 L 182.277344 594.789062 C 181.480469 594.789062 180.71875 594.472656 180.160156 593.914062 C 179.597656 593.351562 179.28125 592.589844 179.28125 591.792969 L 179.28125 515.242188 C 179.28125 514.445312 179.597656 513.683594 180.160156 513.125 C 180.71875 512.5625 181.480469 512.246094 182.277344 512.246094 Z M 182.277344 512.246094 " clip-rule="nonzero"/></clipPath><clipPath id="dfc60880db"><path d="M 195.261719 348.316406 L 318.941406 348.316406 L 318.941406 409.914062 L 195.261719 409.914062 Z M 195.261719 348.316406 " clip-rule="nonzero"/></clipPath><clipPath id="997b843c71"><path d="M 198.257812 348.316406 L 315.726562 348.316406 C 316.519531 348.316406 317.28125 348.628906 317.84375 349.191406 C 318.40625 349.753906 318.71875 350.515625 318.71875 351.3125 L 318.71875 406.917969 C 318.71875 407.710938 318.40625 408.472656 317.84375 409.035156 C 317.28125 409.597656 316.519531 409.914062 315.726562 409.914062 L 198.257812 409.914062 C 197.464844 409.914062 196.703125 409.597656 196.140625 409.035156 C 195.578125 408.472656 195.261719 407.710938 195.261719 406.917969 L 195.261719 351.3125 C 195.261719 350.515625 195.578125 349.753906 196.140625 349.191406 C 196.703125 348.628906 197.464844 348.316406 198.257812 348.316406 Z M 198.257812 348.316406 " clip-rule="nonzero"/></clipPath><clipPath id="c300d9b895"><path d="M 195.261719 348.316406 L 318.828125 348.316406 L 318.828125 409.726562 L 195.261719 409.726562 Z M 195.261719 348.316406 " clip-rule="nonzero"/></clipPath><clipPath id="9b4d57efb4"><path d="M 198.257812 348.316406 L 315.71875 348.316406 C 316.515625 348.316406 317.277344 348.632812 317.839844 349.191406 C 318.402344 349.753906 318.714844 350.515625 318.714844 351.3125 L 318.714844 406.917969 C 318.714844 407.710938 318.402344 408.472656 317.839844 409.035156 C 317.277344 409.597656 316.515625 409.910156 315.71875 409.910156 L 198.257812 409.910156 C 197.464844 409.910156 196.703125 409.597656 196.140625 409.035156 C 195.578125 408.472656 195.261719 407.710938 195.261719 406.917969 L 195.261719 351.3125 C 195.261719 350.515625 195.578125 349.753906 196.140625 349.191406 C 196.703125 348.632812 197.464844 348.316406 198.257812 348.316406 Z M 198.257812 348.316406 " clip-rule="nonzero"/></clipPath><clipPath id="f8b53e770a"><path d="M 376.988281 16.265625 L 499.460938 16.265625 L 499.460938 77.867188 L 376.988281 77.867188 Z M 376.988281 16.265625 " clip-rule="nonzero"/></clipPath><clipPath id="2f7186f08f"><path d="M 379.984375 16.265625 L 496.269531 16.265625 C 497.066406 16.265625 497.828125 16.582031 498.386719 17.144531 C 498.949219 17.707031 499.265625 18.46875 499.265625 19.261719 L 499.265625 74.871094 C 499.265625 75.664062 498.949219 76.425781 498.386719 76.988281 C 497.828125 77.550781 497.066406 77.867188 496.269531 77.867188 L 379.984375 77.867188 C 379.1875 77.867188 378.425781 77.550781 377.863281 76.988281 C 377.300781 76.425781 376.988281 75.664062 376.988281 74.871094 L 376.988281 19.261719 C 376.988281 18.46875 377.300781 17.707031 377.863281 17.144531 C 378.425781 16.582031 379.1875 16.265625 379.984375 16.265625 Z M 379.984375 16.265625 " clip-rule="nonzero"/></clipPath><clipPath id="3007cde74b"><path d="M 376.988281 16.269531 L 499.058594 16.269531 L 499.058594 77.675781 L 376.988281 77.675781 Z M 376.988281 16.269531 " clip-rule="nonzero"/></clipPath><clipPath id="9491d55deb"><path d="M 379.980469 16.269531 L 496.261719 16.269531 C 497.058594 16.269531 497.820312 16.585938 498.378906 17.144531 C 498.941406 17.707031 499.257812 18.46875 499.257812 19.265625 L 499.257812 74.867188 C 499.257812 75.660156 498.941406 76.425781 498.378906 76.984375 C 497.820312 77.546875 497.058594 77.863281 496.261719 77.863281 L 379.980469 77.863281 C 379.1875 77.863281 378.425781 77.546875 377.863281 76.984375 C 377.300781 76.425781 376.988281 75.660156 376.988281 74.867188 L 376.988281 19.265625 C 376.988281 18.46875 377.300781 17.707031 377.863281 17.144531 C 378.425781 16.585938 379.1875 16.269531 379.980469 16.269531 Z M 379.980469 16.269531 " clip-rule="nonzero"/></clipPath></defs><g clip-path="url(#c650bdab1f)"><path fill="#ffffff" d="M 0 0.195312 L 514.5 0.195312 L 514.5 609.808594 L 0 609.808594 Z M 0 0.195312 " fill-opacity="1" fill-rule="nonzero"/><path fill="#ffffff" d="M 0 0.195312 L 514.5 0.195312 L 514.5 609.808594 L 0 609.808594 Z M 0 0.195312 " fill-opacity="1" fill-rule="nonzero"/></g><g clip-path="url(#314c5c2034)"><g clip-path="url(#9a483cd53c)"><path fill="#eff6ff" d="M 15.234375 15.207031 L 137.46875 15.207031 L 137.46875 76.804688 L 15.234375 76.804688 Z M 15.234375 15.207031 " fill-opacity="1" fill-rule="nonzero"/></g></g><g clip-path="url(#3ac745fb7f)"><g clip-path="url(#3910cd6f37)"><path stroke-linecap="butt" transform="matrix(0.74891, 0, 0, 0.74891, 15.235033, 15.207706)" fill="none" stroke-linejoin="miter" d="M 3.999728 -0.00090157 L 159.26709 -0.00090157 C 160.325921 -0.00090157 161.343024 0.421588 162.094116 1.172679 C 162.845208 1.923771 163.267697 2.940875 163.267697 3.999705 L 163.267697 78.248258 C 163.267697 79.307088 162.845208 80.324192 162.094116 81.075284 C 161.343024 81.826375 160.325921 82.243649 159.26709 82.243649 L 3.999728 82.243649 C 2.940897 82.243649 1.923794 81.826375 1.172702 81.075284 C 0.42161 80.324192 -0.000879075 79.307088 -0.000879075 78.248258 L -0.000879075 3.999705 C -0.000879075 2.940875 0.42161 1.923771 1.172702 1.172679 C 1.923794 0.421588 2.940897 -0.00090157 3.999728 -0.00090157 Z M 3.999728 -0.00090157 " stroke="#1d4ed8" stroke-width="6" stroke-opacity="1" stroke-miterlimit="4"/></g></g><g fill="#000000" fill-opacity="1"><g transform="translate(42.301103, 52.651538)"><g><path d="M 3.453125 0 L 1.9375 0 L 1.9375 -12.828125 L 3.453125 -12.828125 Z M 3.453125 0 "/></g></g></g><g fill="#000000" fill-opacity="1"><g transform="translate(47.695012, 52.651538)"><g><path d="M 5.015625 0.1875 C 4.242188 0.1875 3.5625 0 2.96875 -0.375 C 2.375 -0.75 1.90625 -1.304688 1.5625 -2.046875 C 1.226562 -2.796875 1.0625 -3.722656 1.0625 -4.828125 C 1.0625 -5.941406 1.234375 -6.875 1.578125 -7.625 C 1.929688 -8.375 2.414062 -8.929688 3.03125 -9.296875 C 3.65625 -9.671875 4.375 -9.859375 5.1875 -9.859375 C 5.832031 -9.859375 6.410156 -9.738281 6.921875 -9.5 C 7.429688 -9.257812 7.875 -8.859375 8.25 -8.296875 L 8.4375 -8.328125 L 8.4375 -13.5625 L 9.859375 -13.5625 L 9.859375 0 L 8.4375 0 L 8.4375 -1.40625 L 8.25 -1.453125 C 7.9375 -0.972656 7.507812 -0.578125 6.96875 -0.265625 C 6.425781 0.0351562 5.773438 0.1875 5.015625 0.1875 Z M 5.46875 -1.09375 C 6.363281 -1.09375 7.082031 -1.398438 7.625 -2.015625 C 8.164062 -2.640625 8.4375 -3.578125 8.4375 -4.828125 C 8.4375 -6.097656 8.164062 -7.039062 7.625 -7.65625 C 7.082031 -8.269531 6.363281 -8.578125 5.46875 -8.578125 C 4.539062 -8.578125 3.820312 -8.273438 3.3125 -7.671875 C 2.8125 -7.066406 2.5625 -6.117188 2.5625 -4.828125 C 2.5625 -2.335938 3.53125 -1.09375 5.46875 -1.09375 Z M 5.46875 -1.09375 "/></g></g></g><g fill="#000000" fill-opacity="1"><g transform="translate(59.245863, 52.651538)"><g><path d="M 9.21875 -4.515625 L 2.578125 -4.515625 C 2.609375 -3.335938 2.882812 -2.472656 3.40625 -1.921875 C 3.9375 -1.367188 4.660156 -1.09375 5.578125 -1.09375 C 6.265625 -1.09375 6.816406 -1.210938 7.234375 -1.453125 C 7.660156 -1.703125 7.992188 -2.09375 8.234375 -2.625 L 8.421875 -2.625 L 9.34375 -2.078125 C 9.0625 -1.367188 8.613281 -0.8125 8 -0.40625 C 7.382812 -0.0078125 6.578125 0.1875 5.578125 0.1875 C 4.640625 0.1875 3.832031 0.00390625 3.15625 -0.359375 C 2.488281 -0.734375 1.972656 -1.296875 1.609375 -2.046875 C 1.242188 -2.796875 1.0625 -3.722656 1.0625 -4.828125 C 1.0625 -5.929688 1.253906 -6.859375 1.640625 -7.609375 C 2.023438 -8.367188 2.546875 -8.929688 3.203125 -9.296875 C 3.867188 -9.671875 4.628906 -9.859375 5.484375 -9.859375 C 6.722656 -9.859375 7.691406 -9.507812 8.390625 -8.8125 C 9.085938 -8.113281 9.4375 -7.078125 9.4375 -5.703125 C 9.4375 -5.160156 9.425781 -4.796875 9.40625 -4.609375 Z M 8.03125 -5.703125 C 8.007812 -6.734375 7.78125 -7.484375 7.34375 -7.953125 C 6.90625 -8.421875 6.285156 -8.65625 5.484375 -8.65625 C 4.640625 -8.65625 3.972656 -8.414062 3.484375 -7.9375 C 3.003906 -7.46875 2.710938 -6.722656 2.609375 -5.703125 Z M 8.03125 -5.703125 "/></g></g></g><g fill="#000000" fill-opacity="1"><g transform="translate(69.560058, 52.651538)"><g><path d="M 1.6875 0 L 1.6875 -9.671875 L 3.046875 -9.671875 L 3.046875 -8.15625 L 3.234375 -8.109375 C 3.554688 -8.679688 3.96875 -9.113281 4.46875 -9.40625 C 4.96875 -9.707031 5.578125 -9.859375 6.296875 -9.859375 C 7.453125 -9.859375 8.289062 -9.5625 8.8125 -8.96875 C 9.34375 -8.375 9.609375 -7.460938 9.609375 -6.234375 L 9.609375 0 L 8.171875 0 L 8.171875 -6.1875 C 8.171875 -6.78125 8.097656 -7.253906 7.953125 -7.609375 C 7.804688 -7.960938 7.578125 -8.21875 7.265625 -8.375 C 6.953125 -8.53125 6.539062 -8.609375 6.03125 -8.609375 C 5.15625 -8.609375 4.445312 -8.320312 3.90625 -7.75 C 3.375 -7.175781 3.109375 -6.25 3.109375 -4.96875 L 3.109375 0 Z M 1.6875 0 "/></g></g></g><g fill="#000000" fill-opacity="1"><g transform="translate(80.698686, 52.651538)"><g><path d="M 6.546875 -1.53125 L 7 -0.515625 C 6.769531 -0.285156 6.46875 -0.113281 6.09375 0 C 5.726562 0.125 5.328125 0.1875 4.890625 0.1875 C 3.046875 0.1875 2.125 -0.75 2.125 -2.625 L 2.125 -8.515625 L 0.4375 -8.515625 L 0.4375 -9.6875 L 2.125 -9.6875 L 2.125 -11.734375 L 3.546875 -11.96875 L 3.546875 -9.6875 L 6.671875 -9.6875 L 6.671875 -8.515625 L 3.546875 -8.515625 L 3.546875 -2.765625 C 3.546875 -1.648438 4.03125 -1.09375 5 -1.09375 C 5.53125 -1.09375 5.984375 -1.238281 6.359375 -1.53125 Z M 6.546875 -1.53125 "/></g></g></g><g fill="#000000" fill-opacity="1"><g transform="translate(88.065968, 52.651538)"><g><path d="M 2.40625 -11.546875 C 2.101562 -11.546875 1.851562 -11.640625 1.65625 -11.828125 C 1.46875 -12.015625 1.375 -12.257812 1.375 -12.5625 C 1.375 -12.851562 1.46875 -13.09375 1.65625 -13.28125 C 1.851562 -13.46875 2.101562 -13.5625 2.40625 -13.5625 C 2.707031 -13.5625 2.953125 -13.46875 3.140625 -13.28125 C 3.335938 -13.09375 3.4375 -12.851562 3.4375 -12.5625 C 3.4375 -12.257812 3.335938 -12.015625 3.140625 -11.828125 C 2.953125 -11.640625 2.707031 -11.546875 2.40625 -11.546875 Z M 1.6875 0 L 1.6875 -9.671875 L 3.109375 -9.671875 L 3.109375 0 Z M 1.6875 0 "/></g></g></g><g fill="#000000" fill-opacity="1"><g transform="translate(92.863477, 52.651538)"><g><path d="M 6.546875 -1.53125 L 7 -0.515625 C 6.769531 -0.285156 6.46875 -0.113281 6.09375 0 C 5.726562 0.125 5.328125 0.1875 4.890625 0.1875 C 3.046875 0.1875 2.125 -0.75 2.125 -2.625 L 2.125 -8.515625 L 0.4375 -8.515625 L 0.4375 -9.6875 L 2.125 -9.6875 L 2.125 -11.734375 L 3.546875 -11.96875 L 3.546875 -9.6875 L 6.671875 -9.6875 L 6.671875 -8.515625 L 3.546875 -8.515625 L 3.546875 -2.765625 C 3.546875 -1.648438 4.03125 -1.09375 5 -1.09375 C 5.53125 -1.09375 5.984375 -1.238281 6.359375 -1.53125 Z M 6.546875 -1.53125 "/></g></g></g><g fill="#000000" fill-opacity="1"><g transform="translate(100.230759, 52.651538)"><g><path d="M 1.9375 4.109375 C 1.613281 4.109375 1.304688 4.078125 1.015625 4.015625 C 0.734375 3.960938 0.492188 3.890625 0.296875 3.796875 L 0.546875 2.65625 L 0.703125 2.609375 C 0.847656 2.679688 1.023438 2.738281 1.234375 2.78125 C 1.441406 2.832031 1.660156 2.859375 1.890625 2.859375 C 2.273438 2.859375 2.597656 2.804688 2.859375 2.703125 C 3.117188 2.597656 3.335938 2.421875 3.515625 2.171875 C 3.703125 1.929688 3.875 1.597656 4.03125 1.171875 L 4.375 0.234375 L 0.484375 -9.671875 L 2.03125 -9.671875 L 5.078125 -1.78125 L 5.25 -1.78125 L 8.1875 -9.671875 L 9.65625 -9.671875 L 5.328125 1.515625 C 5.085938 2.140625 4.8125 2.640625 4.5 3.015625 C 4.195312 3.390625 3.835938 3.664062 3.421875 3.84375 C 3.015625 4.019531 2.519531 4.109375 1.9375 4.109375 Z M 1.9375 4.109375 "/></g></g></g><path stroke-linecap="round" transform="matrix(0.530432, 0.528685, -0.528685, 0.530432, 78.370104, 91.463332)" fill="none" stroke-linejoin="miter" d="M 1.497301 1.500377 L 98.486256 1.501776 " stroke="#000000" stroke-width="3" stroke-opacity="1" stroke-miterlimit="4"/><path stroke-linecap="round" transform="matrix(0.530432, 0.528685, -0.528685, 0.530432, 78.370104, 91.463332)" fill-opacity="1" fill="#000000" fill-rule="nonzero" stroke-linejoin="round" d="M 99.987407 -2.999057 L 105.988086 1.499398 L 99.987314 6.000185 Z M 99.987407 -2.999057 " stroke="#000000" stroke-width="3" stroke-opacity="1" stroke-miterlimit="4"/><path stroke-linecap="round" transform="matrix(-0.545035, 0.513618, -0.513618, -0.545035, 437.982133, 94.204407)" fill="none" stroke-linejoin="miter" d="M 1.498689 1.500658 L 101.515244 1.499172 " stroke="#000000" stroke-width="3" stroke-opacity="1" stroke-miterlimit="4"/><path stroke-linecap="round" transform="matrix(-0.545035, 0.513618, -0.513618, -0.545035, 437.982133, 94.204407)" fill-opacity="1" fill="#000000" fill-rule="nonzero" stroke-linejoin="round" d="M 103.016351 -2.999003 L 109.01295 1.498058 L 103.014066 6.000566 Z M 103.016351 -2.999003 " stroke="#000000" stroke-width="3" stroke-opacity="1" stroke-miterlimit="4"/><path stroke-linecap="round" transform="matrix(0.00000000130709, 0.74891, -0.74891, 0.00000000130709, 256.362052, 259.463375)" fill="none" stroke-linejoin="miter" d="M 1.498929 1.500542 L 91.640369 1.500542 " stroke="#000000" stroke-width="3" stroke-opacity="1" stroke-miterlimit="4"/><path stroke-linecap="round" transform="matrix(0.00000000130709, 0.74891, -0.74891, 0.00000000130709, 256.362052, 259.463375)" fill-opacity="1" fill="#000000" fill-rule="nonzero" stroke-linejoin="round" d="M 93.142552 -3.000793 L 99.140854 1.500542 L 93.142552 6.001876 Z M 93.142552 -3.000793 " stroke="#000000" stroke-width="3" stroke-opacity="1" stroke-miterlimit="4"/><g clip-path="url(#229120d466)"><g clip-path="url(#f624ed3b77)"><path fill="#eff6ff" d="M 137.515625 162.214844 L 376.042969 162.214844 L 376.042969 246.089844 L 137.515625 246.089844 Z M 137.515625 162.214844 " fill-opacity="1" fill-rule="nonzero"/></g></g><g clip-path="url(#2f2f54a85a)"><g clip-path="url(#e58591338f)"><path stroke-linecap="butt" transform="matrix(0.74891, 0, 0, 0.74891, 137.514182, 162.215719)" fill="none" stroke-linejoin="miter" d="M 3.997317 -0.00116924 L 314.375544 -0.00116924 C 315.434375 -0.00116924 316.451478 0.42132 317.20257 1.172412 C 317.953662 1.923503 318.376151 2.940607 318.376151 3.999437 L 318.376151 107.994347 C 318.376151 109.053178 317.953662 110.075497 317.20257 110.821373 C 316.451478 111.572465 315.434375 111.994954 314.375544 111.994954 L 3.997317 111.994954 C 2.938486 111.994954 1.921383 111.572465 1.170291 110.821373 C 0.419199 110.075497 0.00192619 109.053178 0.00192619 107.994347 L 0.00192619 3.999437 C 0.00192619 2.940607 0.419199 1.923503 1.170291 1.172412 C 1.921383 0.42132 2.938486 -0.00116924 3.997317 -0.00116924 Z M 3.997317 -0.00116924 " stroke="#1d4ed8" stroke-width="6" stroke-opacity="1" stroke-miterlimit="4"/></g></g><g fill="#000000" fill-opacity="1"><g transform="translate(205.150104, 198.161403)"><g><path d="M 11.546875 0 L 9.9375 0 L 8.75 -3.515625 L 3.28125 -3.515625 L 2.09375 0 L 0.515625 0 L 4.984375 -12.828125 L 7.078125 -12.828125 Z M 5.90625 -11.28125 L 3.703125 -4.78125 L 8.3125 -4.78125 L 6.125 -11.28125 Z M 5.90625 -11.28125 "/></g></g></g><g fill="#000000" fill-opacity="1"><g transform="translate(217.200872, 198.161403)"><g><path d="M 1.6875 0 L 1.6875 -9.671875 L 3.046875 -9.671875 L 3.046875 -8.15625 L 3.234375 -8.109375 C 3.554688 -8.679688 3.96875 -9.113281 4.46875 -9.40625 C 4.96875 -9.707031 5.578125 -9.859375 6.296875 -9.859375 C 7.453125 -9.859375 8.289062 -9.5625 8.8125 -8.96875 C 9.34375 -8.375 9.609375 -7.460938 9.609375 -6.234375 L 9.609375 0 L 8.171875 0 L 8.171875 -6.1875 C 8.171875 -6.78125 8.097656 -7.253906 7.953125 -7.609375 C 7.804688 -7.960938 7.578125 -8.21875 7.265625 -8.375 C 6.953125 -8.53125 6.539062 -8.609375 6.03125 -8.609375 C 5.15625 -8.609375 4.445312 -8.320312 3.90625 -7.75 C 3.375 -7.175781 3.109375 -6.25 3.109375 -4.96875 L 3.109375 0 Z M 1.6875 0 "/></g></g></g><g fill="#000000" fill-opacity="1"><g transform="translate(228.3395, 198.161403)"><g><path d="M 5.546875 0.1875 C 4.640625 0.1875 3.847656 -0.00390625 3.171875 -0.390625 C 2.492188 -0.773438 1.972656 -1.34375 1.609375 -2.09375 C 1.242188 -2.851562 1.0625 -3.765625 1.0625 -4.828125 C 1.0625 -5.898438 1.242188 -6.8125 1.609375 -7.5625 C 1.972656 -8.320312 2.492188 -8.894531 3.171875 -9.28125 C 3.847656 -9.664062 4.640625 -9.859375 5.546875 -9.859375 C 6.460938 -9.859375 7.257812 -9.664062 7.9375 -9.28125 C 8.613281 -8.894531 9.132812 -8.320312 9.5 -7.5625 C 9.863281 -6.8125 10.046875 -5.898438 10.046875 -4.828125 C 10.046875 -3.765625 9.863281 -2.851562 9.5 -2.09375 C 9.132812 -1.34375 8.613281 -0.773438 7.9375 -0.390625 C 7.257812 -0.00390625 6.460938 0.1875 5.546875 0.1875 Z M 5.546875 -1.09375 C 6.515625 -1.09375 7.253906 -1.394531 7.765625 -2 C 8.273438 -2.613281 8.53125 -3.554688 8.53125 -4.828125 C 8.53125 -6.109375 8.273438 -7.050781 7.765625 -7.65625 C 7.253906 -8.269531 6.515625 -8.578125 5.546875 -8.578125 C 4.585938 -8.578125 3.847656 -8.269531 3.328125 -7.65625 C 2.816406 -7.050781 2.5625 -6.109375 2.5625 -4.828125 C 2.5625 -3.554688 2.816406 -2.613281 3.328125 -2 C 3.847656 -1.394531 4.585938 -1.09375 5.546875 -1.09375 Z M 5.546875 -1.09375 "/></g></g></g><g fill="#000000" fill-opacity="1"><g transform="translate(239.443046, 198.161403)"><g><path d="M 1.6875 0 L 1.6875 -9.671875 L 3.046875 -9.671875 L 3.046875 -8.15625 L 3.234375 -8.109375 C 3.554688 -8.679688 3.96875 -9.113281 4.46875 -9.40625 C 4.96875 -9.707031 5.578125 -9.859375 6.296875 -9.859375 C 7.453125 -9.859375 8.289062 -9.5625 8.8125 -8.96875 C 9.34375 -8.375 9.609375 -7.460938 9.609375 -6.234375 L 9.609375 0 L 8.171875 0 L 8.171875 -6.1875 C 8.171875 -6.78125 8.097656 -7.253906 7.953125 -7.609375 C 7.804688 -7.960938 7.578125 -8.21875 7.265625 -8.375 C 6.953125 -8.53125 6.539062 -8.609375 6.03125 -8.609375 C 5.15625 -8.609375 4.445312 -8.320312 3.90625 -7.75 C 3.375 -7.175781 3.109375 -6.25 3.109375 -4.96875 L 3.109375 0 Z M 1.6875 0 "/></g></g></g><g fill="#000000" fill-opacity="1"><g transform="translate(250.581675, 198.161403)"><g><path d="M 1.9375 4.109375 C 1.613281 4.109375 1.304688 4.078125 1.015625 4.015625 C 0.734375 3.960938 0.492188 3.890625 0.296875 3.796875 L 0.546875 2.65625 L 0.703125 2.609375 C 0.847656 2.679688 1.023438 2.738281 1.234375 2.78125 C 1.441406 2.832031 1.660156 2.859375 1.890625 2.859375 C 2.273438 2.859375 2.597656 2.804688 2.859375 2.703125 C 3.117188 2.597656 3.335938 2.421875 3.515625 2.171875 C 3.703125 1.929688 3.875 1.597656 4.03125 1.171875 L 4.375 0.234375 L 0.484375 -9.671875 L 2.03125 -9.671875 L 5.078125 -1.78125 L 5.25 -1.78125 L 8.1875 -9.671875 L 9.65625 -9.671875 L 5.328125 1.515625 C 5.085938 2.140625 4.8125 2.640625 4.5 3.015625 C 4.195312 3.390625 3.835938 3.664062 3.421875 3.84375 C 3.015625 4.019531 2.519531 4.109375 1.9375 4.109375 Z M 1.9375 4.109375 "/></g></g></g><g fill="#000000" fill-opacity="1"><g transform="translate(260.781858, 198.161403)"><g><path d="M 1.6875 0 L 1.6875 -9.671875 L 3.046875 -9.671875 L 3.046875 -8.25 L 3.234375 -8.21875 C 3.554688 -8.757812 3.945312 -9.164062 4.40625 -9.4375 C 4.875 -9.71875 5.4375 -9.859375 6.09375 -9.859375 C 6.84375 -9.859375 7.421875 -9.71875 7.828125 -9.4375 C 8.234375 -9.15625 8.550781 -8.695312 8.78125 -8.0625 L 8.96875 -8.0625 C 9.300781 -8.65625 9.710938 -9.101562 10.203125 -9.40625 C 10.691406 -9.707031 11.289062 -9.859375 12 -9.859375 C 13 -9.859375 13.738281 -9.585938 14.21875 -9.046875 C 14.707031 -8.515625 14.953125 -7.695312 14.953125 -6.59375 L 14.953125 0 L 13.53125 0 L 13.53125 -6.5625 C 13.53125 -7.257812 13.378906 -7.773438 13.078125 -8.109375 C 12.785156 -8.441406 12.3125 -8.609375 11.65625 -8.609375 C 10.882812 -8.609375 10.253906 -8.328125 9.765625 -7.765625 C 9.273438 -7.210938 9.03125 -6.289062 9.03125 -5 L 9.03125 0 L 7.609375 0 L 7.609375 -6.5625 C 7.609375 -7.257812 7.457031 -7.773438 7.15625 -8.109375 C 6.863281 -8.441406 6.390625 -8.609375 5.734375 -8.609375 C 4.960938 -8.609375 4.332031 -8.335938 3.84375 -7.796875 C 3.351562 -7.253906 3.109375 -6.375 3.109375 -5.15625 L 3.109375 0 Z M 1.6875 0 "/></g></g></g><g fill="#000000" fill-opacity="1"><g transform="translate(277.270536, 198.161403)"><g><path d="M 5.546875 0.1875 C 4.640625 0.1875 3.847656 -0.00390625 3.171875 -0.390625 C 2.492188 -0.773438 1.972656 -1.34375 1.609375 -2.09375 C 1.242188 -2.851562 1.0625 -3.765625 1.0625 -4.828125 C 1.0625 -5.898438 1.242188 -6.8125 1.609375 -7.5625 C 1.972656 -8.320312 2.492188 -8.894531 3.171875 -9.28125 C 3.847656 -9.664062 4.640625 -9.859375 5.546875 -9.859375 C 6.460938 -9.859375 7.257812 -9.664062 7.9375 -9.28125 C 8.613281 -8.894531 9.132812 -8.320312 9.5 -7.5625 C 9.863281 -6.8125 10.046875 -5.898438 10.046875 -4.828125 C 10.046875 -3.765625 9.863281 -2.851562 9.5 -2.09375 C 9.132812 -1.34375 8.613281 -0.773438 7.9375 -0.390625 C 7.257812 -0.00390625 6.460938 0.1875 5.546875 0.1875 Z M 5.546875 -1.09375 C 6.515625 -1.09375 7.253906 -1.394531 7.765625 -2 C 8.273438 -2.613281 8.53125 -3.554688 8.53125 -4.828125 C 8.53125 -6.109375 8.273438 -7.050781 7.765625 -7.65625 C 7.253906 -8.269531 6.515625 -8.578125 5.546875 -8.578125 C 4.585938 -8.578125 3.847656 -8.269531 3.328125 -7.65625 C 2.816406 -7.050781 2.5625 -6.109375 2.5625 -4.828125 C 2.5625 -3.554688 2.816406 -2.613281 3.328125 -2 C 3.847656 -1.394531 4.585938 -1.09375 5.546875 -1.09375 Z M 5.546875 -1.09375 "/></g></g></g><g fill="#000000" fill-opacity="1"><g transform="translate(288.374082, 198.161403)"><g><path d="M 4.78125 0.1875 C 3.6875 0.1875 2.867188 -0.0976562 2.328125 -0.671875 C 1.796875 -1.253906 1.53125 -2.109375 1.53125 -3.234375 L 1.53125 -9.671875 L 2.96875 -9.671875 L 2.96875 -3.265625 C 2.96875 -1.796875 3.65625 -1.0625 5.03125 -1.0625 C 5.914062 -1.0625 6.609375 -1.347656 7.109375 -1.921875 C 7.617188 -2.492188 7.875 -3.425781 7.875 -4.71875 L 7.875 -9.671875 L 9.3125 -9.671875 L 9.3125 0 L 7.953125 0 L 7.953125 -1.515625 L 7.78125 -1.5625 C 7.445312 -0.96875 7.046875 -0.523438 6.578125 -0.234375 C 6.109375 0.046875 5.507812 0.1875 4.78125 0.1875 Z M 4.78125 0.1875 "/></g></g></g><g fill="#000000" fill-opacity="1"><g transform="translate(299.363617, 198.161403)"><g><path d="M 4.40625 0.1875 C 3.800781 0.1875 3.238281 0.109375 2.71875 -0.046875 C 2.207031 -0.210938 1.769531 -0.4375 1.40625 -0.71875 C 1.050781 -1 0.800781 -1.316406 0.65625 -1.671875 L 1.5 -2.546875 L 1.6875 -2.546875 C 2 -2.066406 2.375 -1.703125 2.8125 -1.453125 C 3.257812 -1.210938 3.789062 -1.09375 4.40625 -1.09375 C 5.125 -1.09375 5.664062 -1.234375 6.03125 -1.515625 C 6.40625 -1.796875 6.59375 -2.179688 6.59375 -2.671875 C 6.59375 -3.054688 6.476562 -3.367188 6.25 -3.609375 C 6.03125 -3.859375 5.671875 -4.046875 5.171875 -4.171875 L 3.53125 -4.578125 C 2.664062 -4.785156 2.03125 -5.117188 1.625 -5.578125 C 1.226562 -6.035156 1.03125 -6.601562 1.03125 -7.28125 C 1.03125 -7.800781 1.160156 -8.253906 1.421875 -8.640625 C 1.691406 -9.035156 2.082031 -9.335938 2.59375 -9.546875 C 3.101562 -9.753906 3.703125 -9.859375 4.390625 -9.859375 C 5.285156 -9.859375 5.988281 -9.734375 6.5 -9.484375 C 7.007812 -9.234375 7.40625 -8.890625 7.6875 -8.453125 L 6.890625 -7.65625 L 6.71875 -7.65625 C 6.40625 -8.007812 6.066406 -8.265625 5.703125 -8.421875 C 5.335938 -8.585938 4.898438 -8.671875 4.390625 -8.671875 C 3.753906 -8.671875 3.265625 -8.554688 2.921875 -8.328125 C 2.585938 -8.097656 2.421875 -7.765625 2.421875 -7.328125 C 2.421875 -6.941406 2.539062 -6.628906 2.78125 -6.390625 C 3.019531 -6.148438 3.4375 -5.957031 4.03125 -5.8125 L 5.640625 -5.421875 C 6.484375 -5.222656 7.09375 -4.890625 7.46875 -4.421875 C 7.84375 -3.960938 8.03125 -3.382812 8.03125 -2.6875 C 8.03125 -2.125 7.894531 -1.625 7.625 -1.1875 C 7.351562 -0.757812 6.945312 -0.421875 6.40625 -0.171875 C 5.863281 0.0664062 5.195312 0.1875 4.40625 0.1875 Z M 4.40625 0.1875 "/></g></g></g><g fill="#000000" fill-opacity="1"><g transform="translate(164.790883, 222.875428)"><g><path d="M 6.53125 -12.828125 C 7.414062 -12.828125 8.171875 -12.664062 8.796875 -12.34375 C 9.429688 -12.03125 9.910156 -11.578125 10.234375 -10.984375 C 10.566406 -10.398438 10.734375 -9.710938 10.734375 -8.921875 C 10.734375 -8.128906 10.566406 -7.4375 10.234375 -6.84375 C 9.910156 -6.257812 9.429688 -5.804688 8.796875 -5.484375 C 8.171875 -5.171875 7.414062 -5.015625 6.53125 -5.015625 L 3.453125 -5.015625 L 3.453125 0 L 1.9375 0 L 1.9375 -12.828125 Z M 6.484375 -6.3125 C 8.265625 -6.3125 9.15625 -7.179688 9.15625 -8.921875 C 9.15625 -10.671875 8.265625 -11.546875 6.484375 -11.546875 L 3.453125 -11.546875 L 3.453125 -6.3125 Z M 6.484375 -6.3125 "/></g></g></g><g fill="#000000" fill-opacity="1"><g transform="translate(176.482064, 222.875428)"><g><path d="M 1.6875 0 L 1.6875 -9.671875 L 3.046875 -9.671875 L 3.046875 -8.15625 L 3.234375 -8.109375 C 3.679688 -9.210938 4.523438 -9.765625 5.765625 -9.765625 C 6.429688 -9.765625 6.925781 -9.644531 7.25 -9.40625 L 6.890625 -8.1875 L 6.71875 -8.15625 C 6.351562 -8.34375 5.953125 -8.4375 5.515625 -8.4375 C 4.742188 -8.4375 4.148438 -8.144531 3.734375 -7.5625 C 3.316406 -6.976562 3.109375 -6.039062 3.109375 -4.75 L 3.109375 0 Z M 1.6875 0 "/></g></g></g><g fill="#000000" fill-opacity="1"><g transform="translate(183.954593, 222.875428)"><g><path d="M 5.546875 0.1875 C 4.640625 0.1875 3.847656 -0.00390625 3.171875 -0.390625 C 2.492188 -0.773438 1.972656 -1.34375 1.609375 -2.09375 C 1.242188 -2.851562 1.0625 -3.765625 1.0625 -4.828125 C 1.0625 -5.898438 1.242188 -6.8125 1.609375 -7.5625 C 1.972656 -8.320312 2.492188 -8.894531 3.171875 -9.28125 C 3.847656 -9.664062 4.640625 -9.859375 5.546875 -9.859375 C 6.460938 -9.859375 7.257812 -9.664062 7.9375 -9.28125 C 8.613281 -8.894531 9.132812 -8.320312 9.5 -7.5625 C 9.863281 -6.8125 10.046875 -5.898438 10.046875 -4.828125 C 10.046875 -3.765625 9.863281 -2.851562 9.5 -2.09375 C 9.132812 -1.34375 8.613281 -0.773438 7.9375 -0.390625 C 7.257812 -0.00390625 6.460938 0.1875 5.546875 0.1875 Z M 5.546875 -1.09375 C 6.515625 -1.09375 7.253906 -1.394531 7.765625 -2 C 8.273438 -2.613281 8.53125 -3.554688 8.53125 -4.828125 C 8.53125 -6.109375 8.273438 -7.050781 7.765625 -7.65625 C 7.253906 -8.269531 6.515625 -8.578125 5.546875 -8.578125 C 4.585938 -8.578125 3.847656 -8.269531 3.328125 -7.65625 C 2.816406 -7.050781 2.5625 -6.109375 2.5625 -4.828125 C 2.5625 -3.554688 2.816406 -2.613281 3.328125 -2 C 3.847656 -1.394531 4.585938 -1.09375 5.546875 -1.09375 Z M 5.546875 -1.09375 "/></g></g></g><g fill="#000000" fill-opacity="1"><g transform="translate(195.058139, 222.875428)"><g><path d="M 5.546875 0.1875 C 4.640625 0.1875 3.847656 -0.00390625 3.171875 -0.390625 C 2.492188 -0.773438 1.972656 -1.34375 1.609375 -2.09375 C 1.242188 -2.851562 1.0625 -3.765625 1.0625 -4.828125 C 1.0625 -5.898438 1.242188 -6.8125 1.609375 -7.5625 C 1.972656 -8.320312 2.492188 -8.894531 3.171875 -9.28125 C 3.847656 -9.664062 4.640625 -9.859375 5.546875 -9.859375 C 6.460938 -9.859375 7.257812 -9.664062 7.9375 -9.28125 C 8.613281 -8.894531 9.132812 -8.320312 9.5 -7.5625 C 9.863281 -6.8125 10.046875 -5.898438 10.046875 -4.828125 C 10.046875 -3.765625 9.863281 -2.851562 9.5 -2.09375 C 9.132812 -1.34375 8.613281 -0.773438 7.9375 -0.390625 C 7.257812 -0.00390625 6.460938 0.1875 5.546875 0.1875 Z M 5.546875 -1.09375 C 6.515625 -1.09375 7.253906 -1.394531 7.765625 -2 C 8.273438 -2.613281 8.53125 -3.554688 8.53125 -4.828125 C 8.53125 -6.109375 8.273438 -7.050781 7.765625 -7.65625 C 7.253906 -8.269531 6.515625 -8.578125 5.546875 -8.578125 C 4.585938 -8.578125 3.847656 -8.269531 3.328125 -7.65625 C 2.816406 -7.050781 2.5625 -6.109375 2.5625 -4.828125 C 2.5625 -3.554688 2.816406 -2.613281 3.328125 -2 C 3.847656 -1.394531 4.585938 -1.09375 5.546875 -1.09375 Z M 5.546875 -1.09375 "/></g></g></g><g fill="#000000" fill-opacity="1"><g transform="translate(206.161685, 222.875428)"><g><path d="M 2.15625 0 L 2.15625 -8.515625 L 0.46875 -8.515625 L 0.46875 -9.6875 L 2.15625 -9.6875 C 2.050781 -10.101562 2 -10.503906 2 -10.890625 C 2 -11.515625 2.128906 -12.039062 2.390625 -12.46875 C 2.660156 -12.894531 3.03125 -13.210938 3.5 -13.421875 C 3.976562 -13.640625 4.53125 -13.75 5.15625 -13.75 C 6.113281 -13.75 6.851562 -13.539062 7.375 -13.125 L 6.8125 -12.109375 L 6.640625 -12.078125 C 6.253906 -12.378906 5.757812 -12.53125 5.15625 -12.53125 C 4.582031 -12.53125 4.148438 -12.382812 3.859375 -12.09375 C 3.578125 -11.800781 3.4375 -11.390625 3.4375 -10.859375 C 3.4375 -10.523438 3.488281 -10.132812 3.59375 -9.6875 L 6.671875 -9.6875 L 6.671875 -8.515625 L 3.59375 -8.515625 L 3.59375 0 Z M 2.15625 0 "/></g></g></g><g fill="#000000" fill-opacity="1"><g transform="translate(213.055356, 222.875428)"><g/></g></g><g fill="#000000" fill-opacity="1"><g transform="translate(217.458184, 222.875428)"><g><path d="M 5.546875 0.1875 C 4.640625 0.1875 3.847656 -0.00390625 3.171875 -0.390625 C 2.492188 -0.773438 1.972656 -1.34375 1.609375 -2.09375 C 1.242188 -2.851562 1.0625 -3.765625 1.0625 -4.828125 C 1.0625 -5.898438 1.242188 -6.8125 1.609375 -7.5625 C 1.972656 -8.320312 2.492188 -8.894531 3.171875 -9.28125 C 3.847656 -9.664062 4.640625 -9.859375 5.546875 -9.859375 C 6.460938 -9.859375 7.257812 -9.664062 7.9375 -9.28125 C 8.613281 -8.894531 9.132812 -8.320312 9.5 -7.5625 C 9.863281 -6.8125 10.046875 -5.898438 10.046875 -4.828125 C 10.046875 -3.765625 9.863281 -2.851562 9.5 -2.09375 C 9.132812 -1.34375 8.613281 -0.773438 7.9375 -0.390625 C 7.257812 -0.00390625 6.460938 0.1875 5.546875 0.1875 Z M 5.546875 -1.09375 C 6.515625 -1.09375 7.253906 -1.394531 7.765625 -2 C 8.273438 -2.613281 8.53125 -3.554688 8.53125 -4.828125 C 8.53125 -6.109375 8.273438 -7.050781 7.765625 -7.65625 C 7.253906 -8.269531 6.515625 -8.578125 5.546875 -8.578125 C 4.585938 -8.578125 3.847656 -8.269531 3.328125 -7.65625 C 2.816406 -7.050781 2.5625 -6.109375 2.5625 -4.828125 C 2.5625 -3.554688 2.816406 -2.613281 3.328125 -2 C 3.847656 -1.394531 4.585938 -1.09375 5.546875 -1.09375 Z M 5.546875 -1.09375 "/></g></g></g><g fill="#000000" fill-opacity="1"><g transform="translate(228.56173, 222.875428)"><g><path d="M 2.15625 0 L 2.15625 -8.515625 L 0.46875 -8.515625 L 0.46875 -9.6875 L 2.15625 -9.6875 C 2.050781 -10.101562 2 -10.503906 2 -10.890625 C 2 -11.515625 2.128906 -12.039062 2.390625 -12.46875 C 2.660156 -12.894531 3.03125 -13.210938 3.5 -13.421875 C 3.976562 -13.640625 4.53125 -13.75 5.15625 -13.75 C 6.113281 -13.75 6.851562 -13.539062 7.375 -13.125 L 6.8125 -12.109375 L 6.640625 -12.078125 C 6.253906 -12.378906 5.757812 -12.53125 5.15625 -12.53125 C 4.582031 -12.53125 4.148438 -12.382812 3.859375 -12.09375 C 3.578125 -11.800781 3.4375 -11.390625 3.4375 -10.859375 C 3.4375 -10.523438 3.488281 -10.132812 3.59375 -9.6875 L 6.671875 -9.6875 L 6.671875 -8.515625 L 3.59375 -8.515625 L 3.59375 0 Z M 2.15625 0 "/></g></g></g><g fill="#000000" fill-opacity="1"><g transform="translate(235.455401, 222.875428)"><g/></g></g><g fill="#000000" fill-opacity="1"><g transform="translate(239.858229, 222.875428)"><g><path d="M 3.328125 0 L 1.9375 0 L 1.9375 -12.828125 L 4.171875 -12.828125 L 8.0625 -1.96875 L 8.25 -1.96875 L 12.140625 -12.828125 L 14.296875 -12.828125 L 14.296875 0 L 12.859375 0 L 12.859375 -10.46875 L 12.640625 -10.5 L 8.859375 0 L 7.359375 0 L 3.546875 -10.5 L 3.328125 -10.46875 Z M 3.328125 0 "/></g></g></g><g fill="#000000" fill-opacity="1"><g transform="translate(256.092566, 222.875428)"><g><path d="M 9.21875 -4.515625 L 2.578125 -4.515625 C 2.609375 -3.335938 2.882812 -2.472656 3.40625 -1.921875 C 3.9375 -1.367188 4.660156 -1.09375 5.578125 -1.09375 C 6.265625 -1.09375 6.816406 -1.210938 7.234375 -1.453125 C 7.660156 -1.703125 7.992188 -2.09375 8.234375 -2.625 L 8.421875 -2.625 L 9.34375 -2.078125 C 9.0625 -1.367188 8.613281 -0.8125 8 -0.40625 C 7.382812 -0.0078125 6.578125 0.1875 5.578125 0.1875 C 4.640625 0.1875 3.832031 0.00390625 3.15625 -0.359375 C 2.488281 -0.734375 1.972656 -1.296875 1.609375 -2.046875 C 1.242188 -2.796875 1.0625 -3.722656 1.0625 -4.828125 C 1.0625 -5.929688 1.253906 -6.859375 1.640625 -7.609375 C 2.023438 -8.367188 2.546875 -8.929688 3.203125 -9.296875 C 3.867188 -9.671875 4.628906 -9.859375 5.484375 -9.859375 C 6.722656 -9.859375 7.691406 -9.507812 8.390625 -8.8125 C 9.085938 -8.113281 9.4375 -7.078125 9.4375 -5.703125 C 9.4375 -5.160156 9.425781 -4.796875 9.40625 -4.609375 Z M 8.03125 -5.703125 C 8.007812 -6.734375 7.78125 -7.484375 7.34375 -7.953125 C 6.90625 -8.421875 6.285156 -8.65625 5.484375 -8.65625 C 4.640625 -8.65625 3.972656 -8.414062 3.484375 -7.9375 C 3.003906 -7.46875 2.710938 -6.722656 2.609375 -5.703125 Z M 8.03125 -5.703125 "/></g></g></g><g fill="#000000" fill-opacity="1"><g transform="translate(266.406761, 222.875428)"><g><path d="M 1.6875 0 L 1.6875 -9.671875 L 3.046875 -9.671875 L 3.046875 -8.25 L 3.234375 -8.21875 C 3.554688 -8.757812 3.945312 -9.164062 4.40625 -9.4375 C 4.875 -9.71875 5.4375 -9.859375 6.09375 -9.859375 C 6.84375 -9.859375 7.421875 -9.71875 7.828125 -9.4375 C 8.234375 -9.15625 8.550781 -8.695312 8.78125 -8.0625 L 8.96875 -8.0625 C 9.300781 -8.65625 9.710938 -9.101562 10.203125 -9.40625 C 10.691406 -9.707031 11.289062 -9.859375 12 -9.859375 C 13 -9.859375 13.738281 -9.585938 14.21875 -9.046875 C 14.707031 -8.515625 14.953125 -7.695312 14.953125 -6.59375 L 14.953125 0 L 13.53125 0 L 13.53125 -6.5625 C 13.53125 -7.257812 13.378906 -7.773438 13.078125 -8.109375 C 12.785156 -8.441406 12.3125 -8.609375 11.65625 -8.609375 C 10.882812 -8.609375 10.253906 -8.328125 9.765625 -7.765625 C 9.273438 -7.210938 9.03125 -6.289062 9.03125 -5 L 9.03125 0 L 7.609375 0 L 7.609375 -6.5625 C 7.609375 -7.257812 7.457031 -7.773438 7.15625 -8.109375 C 6.863281 -8.441406 6.390625 -8.609375 5.734375 -8.609375 C 4.960938 -8.609375 4.332031 -8.335938 3.84375 -7.796875 C 3.351562 -7.253906 3.109375 -6.375 3.109375 -5.15625 L 3.109375 0 Z M 1.6875 0 "/></g></g></g><g fill="#000000" fill-opacity="1"><g transform="translate(282.895439, 222.875428)"><g><path d="M 6.4375 0.1875 C 5.71875 0.1875 5.09375 0.046875 4.5625 -0.234375 C 4.03125 -0.515625 3.609375 -0.878906 3.296875 -1.328125 L 3.109375 -1.296875 L 3.109375 0 L 1.6875 0 L 1.6875 -13.5625 L 3.109375 -13.5625 L 3.109375 -8.234375 L 3.296875 -8.1875 C 4.035156 -9.300781 5.109375 -9.859375 6.515625 -9.859375 C 7.304688 -9.859375 8 -9.671875 8.59375 -9.296875 C 9.195312 -8.929688 9.660156 -8.375 9.984375 -7.625 C 10.316406 -6.875 10.484375 -5.941406 10.484375 -4.828125 C 10.484375 -3.734375 10.304688 -2.8125 9.953125 -2.0625 C 9.609375 -1.3125 9.128906 -0.75 8.515625 -0.375 C 7.910156 0 7.21875 0.1875 6.4375 0.1875 Z M 6.09375 -1.09375 C 8.019531 -1.09375 8.984375 -2.335938 8.984375 -4.828125 C 8.984375 -6.117188 8.726562 -7.066406 8.21875 -7.671875 C 7.71875 -8.273438 7.007812 -8.578125 6.09375 -8.578125 C 5.1875 -8.578125 4.460938 -8.269531 3.921875 -7.65625 C 3.378906 -7.039062 3.109375 -6.097656 3.109375 -4.828125 C 3.109375 -3.578125 3.378906 -2.640625 3.921875 -2.015625 C 4.460938 -1.398438 5.1875 -1.09375 6.09375 -1.09375 Z M 6.09375 -1.09375 "/></g></g></g><g fill="#000000" fill-opacity="1"><g transform="translate(294.437514, 222.875428)"><g><path d="M 9.21875 -4.515625 L 2.578125 -4.515625 C 2.609375 -3.335938 2.882812 -2.472656 3.40625 -1.921875 C 3.9375 -1.367188 4.660156 -1.09375 5.578125 -1.09375 C 6.265625 -1.09375 6.816406 -1.210938 7.234375 -1.453125 C 7.660156 -1.703125 7.992188 -2.09375 8.234375 -2.625 L 8.421875 -2.625 L 9.34375 -2.078125 C 9.0625 -1.367188 8.613281 -0.8125 8 -0.40625 C 7.382812 -0.0078125 6.578125 0.1875 5.578125 0.1875 C 4.640625 0.1875 3.832031 0.00390625 3.15625 -0.359375 C 2.488281 -0.734375 1.972656 -1.296875 1.609375 -2.046875 C 1.242188 -2.796875 1.0625 -3.722656 1.0625 -4.828125 C 1.0625 -5.929688 1.253906 -6.859375 1.640625 -7.609375 C 2.023438 -8.367188 2.546875 -8.929688 3.203125 -9.296875 C 3.867188 -9.671875 4.628906 -9.859375 5.484375 -9.859375 C 6.722656 -9.859375 7.691406 -9.507812 8.390625 -8.8125 C 9.085938 -8.113281 9.4375 -7.078125 9.4375 -5.703125 C 9.4375 -5.160156 9.425781 -4.796875 9.40625 -4.609375 Z M 8.03125 -5.703125 C 8.007812 -6.734375 7.78125 -7.484375 7.34375 -7.953125 C 6.90625 -8.421875 6.285156 -8.65625 5.484375 -8.65625 C 4.640625 -8.65625 3.972656 -8.414062 3.484375 -7.9375 C 3.003906 -7.46875 2.710938 -6.722656 2.609375 -5.703125 Z M 8.03125 -5.703125 "/></g></g></g><g fill="#000000" fill-opacity="1"><g transform="translate(304.751709, 222.875428)"><g><path d="M 1.6875 0 L 1.6875 -9.671875 L 3.046875 -9.671875 L 3.046875 -8.15625 L 3.234375 -8.109375 C 3.679688 -9.210938 4.523438 -9.765625 5.765625 -9.765625 C 6.429688 -9.765625 6.925781 -9.644531 7.25 -9.40625 L 6.890625 -8.1875 L 6.71875 -8.15625 C 6.351562 -8.34375 5.953125 -8.4375 5.515625 -8.4375 C 4.742188 -8.4375 4.148438 -8.144531 3.734375 -7.5625 C 3.316406 -6.976562 3.109375 -6.039062 3.109375 -4.75 L 3.109375 0 Z M 1.6875 0 "/></g></g></g><g fill="#000000" fill-opacity="1"><g transform="translate(312.224237, 222.875428)"><g><path d="M 4.40625 0.1875 C 3.800781 0.1875 3.238281 0.109375 2.71875 -0.046875 C 2.207031 -0.210938 1.769531 -0.4375 1.40625 -0.71875 C 1.050781 -1 0.800781 -1.316406 0.65625 -1.671875 L 1.5 -2.546875 L 1.6875 -2.546875 C 2 -2.066406 2.375 -1.703125 2.8125 -1.453125 C 3.257812 -1.210938 3.789062 -1.09375 4.40625 -1.09375 C 5.125 -1.09375 5.664062 -1.234375 6.03125 -1.515625 C 6.40625 -1.796875 6.59375 -2.179688 6.59375 -2.671875 C 6.59375 -3.054688 6.476562 -3.367188 6.25 -3.609375 C 6.03125 -3.859375 5.671875 -4.046875 5.171875 -4.171875 L 3.53125 -4.578125 C 2.664062 -4.785156 2.03125 -5.117188 1.625 -5.578125 C 1.226562 -6.035156 1.03125 -6.601562 1.03125 -7.28125 C 1.03125 -7.800781 1.160156 -8.253906 1.421875 -8.640625 C 1.691406 -9.035156 2.082031 -9.335938 2.59375 -9.546875 C 3.101562 -9.753906 3.703125 -9.859375 4.390625 -9.859375 C 5.285156 -9.859375 5.988281 -9.734375 6.5 -9.484375 C 7.007812 -9.234375 7.40625 -8.890625 7.6875 -8.453125 L 6.890625 -7.65625 L 6.71875 -7.65625 C 6.40625 -8.007812 6.066406 -8.265625 5.703125 -8.421875 C 5.335938 -8.585938 4.898438 -8.671875 4.390625 -8.671875 C 3.753906 -8.671875 3.265625 -8.554688 2.921875 -8.328125 C 2.585938 -8.097656 2.421875 -7.765625 2.421875 -7.328125 C 2.421875 -6.941406 2.539062 -6.628906 2.78125 -6.390625 C 3.019531 -6.148438 3.4375 -5.957031 4.03125 -5.8125 L 5.640625 -5.421875 C 6.484375 -5.222656 7.09375 -4.890625 7.46875 -4.421875 C 7.84375 -3.960938 8.03125 -3.382812 8.03125 -2.6875 C 8.03125 -2.125 7.894531 -1.625 7.625 -1.1875 C 7.351562 -0.757812 6.945312 -0.421875 6.40625 -0.171875 C 5.863281 0.0664062 5.195312 0.1875 4.40625 0.1875 Z M 4.40625 0.1875 "/></g></g></g><g fill="#000000" fill-opacity="1"><g transform="translate(321.170223, 222.875428)"><g><path d="M 1.6875 0 L 1.6875 -13.5625 L 3.109375 -13.5625 L 3.109375 -8.296875 L 3.296875 -8.265625 C 3.984375 -9.328125 4.984375 -9.859375 6.296875 -9.859375 C 7.453125 -9.859375 8.289062 -9.5625 8.8125 -8.96875 C 9.34375 -8.375 9.609375 -7.460938 9.609375 -6.234375 L 9.609375 0 L 8.171875 0 L 8.171875 -6.1875 C 8.171875 -6.78125 8.097656 -7.253906 7.953125 -7.609375 C 7.804688 -7.960938 7.578125 -8.21875 7.265625 -8.375 C 6.953125 -8.53125 6.539062 -8.609375 6.03125 -8.609375 C 5.15625 -8.609375 4.445312 -8.320312 3.90625 -7.75 C 3.375 -7.1875 3.109375 -6.257812 3.109375 -4.96875 L 3.109375 0 Z M 1.6875 0 "/></g></g></g><g fill="#000000" fill-opacity="1"><g transform="translate(332.308851, 222.875428)"><g><path d="M 2.40625 -11.546875 C 2.101562 -11.546875 1.851562 -11.640625 1.65625 -11.828125 C 1.46875 -12.015625 1.375 -12.257812 1.375 -12.5625 C 1.375 -12.851562 1.46875 -13.09375 1.65625 -13.28125 C 1.851562 -13.46875 2.101562 -13.5625 2.40625 -13.5625 C 2.707031 -13.5625 2.953125 -13.46875 3.140625 -13.28125 C 3.335938 -13.09375 3.4375 -12.851562 3.4375 -12.5625 C 3.4375 -12.257812 3.335938 -12.015625 3.140625 -11.828125 C 2.953125 -11.640625 2.707031 -11.546875 2.40625 -11.546875 Z M 1.6875 0 L 1.6875 -9.671875 L 3.109375 -9.671875 L 3.109375 0 Z M 1.6875 0 "/></g></g></g><g fill="#000000" fill-opacity="1"><g transform="translate(337.106361, 222.875428)"><g><path d="M 1.6875 3.921875 L 1.6875 -9.671875 L 3.109375 -9.671875 L 3.109375 -8.234375 L 3.296875 -8.1875 C 4.015625 -9.300781 5.070312 -9.859375 6.46875 -9.859375 C 7.269531 -9.859375 7.972656 -9.671875 8.578125 -9.296875 C 9.179688 -8.929688 9.648438 -8.375 9.984375 -7.625 C 10.316406 -6.875 10.484375 -5.941406 10.484375 -4.828125 C 10.484375 -3.722656 10.304688 -2.796875 9.953125 -2.046875 C 9.609375 -1.304688 9.125 -0.75 8.5 -0.375 C 7.882812 0 7.171875 0.1875 6.359375 0.1875 C 5.703125 0.1875 5.117188 0.0703125 4.609375 -0.15625 C 4.109375 -0.382812 3.671875 -0.757812 3.296875 -1.28125 L 3.109375 -1.25 L 3.109375 3.921875 Z M 6.046875 -1.09375 C 8.003906 -1.09375 8.984375 -2.335938 8.984375 -4.828125 C 8.984375 -7.328125 8.003906 -8.578125 6.046875 -8.578125 C 5.472656 -8.578125 4.96875 -8.445312 4.53125 -8.1875 C 4.09375 -7.925781 3.742188 -7.515625 3.484375 -6.953125 C 3.234375 -6.390625 3.109375 -5.679688 3.109375 -4.828125 C 3.109375 -3.984375 3.234375 -3.28125 3.484375 -2.71875 C 3.742188 -2.164062 4.09375 -1.753906 4.53125 -1.484375 C 4.96875 -1.222656 5.472656 -1.09375 6.046875 -1.09375 Z M 6.046875 -1.09375 "/></g></g></g><g clip-path="url(#c28ed1ff83)"><g clip-path="url(#d2eaaa2c9f)"><path fill="#eff6ff" d="M 179.277344 512.246094 L 334.703125 512.246094 L 334.703125 594.792969 L 179.277344 594.792969 Z M 179.277344 512.246094 " fill-opacity="1" fill-rule="nonzero"/></g></g><g clip-path="url(#f3d73c80b0)"><g clip-path="url(#aed6334018)"><path stroke-linecap="butt" transform="matrix(0.74891, 0, 0, 0.74891, 179.28118, 512.245817)" fill="none" stroke-linejoin="miter" d="M 4.000701 0.000369317 L 203.525103 0.000369317 C 204.583934 0.000369317 205.601037 0.422858 206.352129 1.17395 C 207.103221 1.919826 207.52571 2.93693 207.52571 4.000976 L 207.52571 106.217266 C 207.52571 107.281312 207.103221 108.298416 206.352129 109.049507 C 205.601037 109.795383 204.583934 110.217872 203.525103 110.217872 L 4.000701 110.217872 C 2.936654 110.217872 1.919551 109.795383 1.173675 109.049507 C 0.422583 108.298416 0.0000938655 107.281312 0.0000938655 106.217266 L 0.0000938655 4.000976 C 0.0000938655 2.93693 0.422583 1.919826 1.173675 1.17395 C 1.919551 0.422858 2.936654 0.000369317 4.000701 0.000369317 Z M 4.000701 0.000369317 " stroke="#1d4ed8" stroke-width="6" stroke-opacity="1" stroke-miterlimit="4"/></g></g><g fill="#000000" fill-opacity="1"><g transform="translate(205.408567, 547.44458)"><g><path d="M 11.546875 0 L 9.9375 0 L 8.75 -3.515625 L 3.28125 -3.515625 L 2.09375 0 L 0.515625 0 L 4.984375 -12.828125 L 7.078125 -12.828125 Z M 5.90625 -11.28125 L 3.703125 -4.78125 L 8.3125 -4.78125 L 6.125 -11.28125 Z M 5.90625 -11.28125 "/></g></g></g><g fill="#000000" fill-opacity="1"><g transform="translate(217.459336, 547.44458)"><g><path d="M 1.6875 0 L 1.6875 -9.671875 L 3.046875 -9.671875 L 3.046875 -8.15625 L 3.234375 -8.109375 C 3.554688 -8.679688 3.96875 -9.113281 4.46875 -9.40625 C 4.96875 -9.707031 5.578125 -9.859375 6.296875 -9.859375 C 7.453125 -9.859375 8.289062 -9.5625 8.8125 -8.96875 C 9.34375 -8.375 9.609375 -7.460938 9.609375 -6.234375 L 9.609375 0 L 8.171875 0 L 8.171875 -6.1875 C 8.171875 -6.78125 8.097656 -7.253906 7.953125 -7.609375 C 7.804688 -7.960938 7.578125 -8.21875 7.265625 -8.375 C 6.953125 -8.53125 6.539062 -8.609375 6.03125 -8.609375 C 5.15625 -8.609375 4.445312 -8.320312 3.90625 -7.75 C 3.375 -7.175781 3.109375 -6.25 3.109375 -4.96875 L 3.109375 0 Z M 1.6875 0 "/></g></g></g><g fill="#000000" fill-opacity="1"><g transform="translate(228.597964, 547.44458)"><g><path d="M 5.546875 0.1875 C 4.640625 0.1875 3.847656 -0.00390625 3.171875 -0.390625 C 2.492188 -0.773438 1.972656 -1.34375 1.609375 -2.09375 C 1.242188 -2.851562 1.0625 -3.765625 1.0625 -4.828125 C 1.0625 -5.898438 1.242188 -6.8125 1.609375 -7.5625 C 1.972656 -8.320312 2.492188 -8.894531 3.171875 -9.28125 C 3.847656 -9.664062 4.640625 -9.859375 5.546875 -9.859375 C 6.460938 -9.859375 7.257812 -9.664062 7.9375 -9.28125 C 8.613281 -8.894531 9.132812 -8.320312 9.5 -7.5625 C 9.863281 -6.8125 10.046875 -5.898438 10.046875 -4.828125 C 10.046875 -3.765625 9.863281 -2.851562 9.5 -2.09375 C 9.132812 -1.34375 8.613281 -0.773438 7.9375 -0.390625 C 7.257812 -0.00390625 6.460938 0.1875 5.546875 0.1875 Z M 5.546875 -1.09375 C 6.515625 -1.09375 7.253906 -1.394531 7.765625 -2 C 8.273438 -2.613281 8.53125 -3.554688 8.53125 -4.828125 C 8.53125 -6.109375 8.273438 -7.050781 7.765625 -7.65625 C 7.253906 -8.269531 6.515625 -8.578125 5.546875 -8.578125 C 4.585938 -8.578125 3.847656 -8.269531 3.328125 -7.65625 C 2.816406 -7.050781 2.5625 -6.109375 2.5625 -4.828125 C 2.5625 -3.554688 2.816406 -2.613281 3.328125 -2 C 3.847656 -1.394531 4.585938 -1.09375 5.546875 -1.09375 Z M 5.546875 -1.09375 "/></g></g></g><g fill="#000000" fill-opacity="1"><g transform="translate(239.70151, 547.44458)"><g><path d="M 1.6875 0 L 1.6875 -9.671875 L 3.046875 -9.671875 L 3.046875 -8.15625 L 3.234375 -8.109375 C 3.554688 -8.679688 3.96875 -9.113281 4.46875 -9.40625 C 4.96875 -9.707031 5.578125 -9.859375 6.296875 -9.859375 C 7.453125 -9.859375 8.289062 -9.5625 8.8125 -8.96875 C 9.34375 -8.375 9.609375 -7.460938 9.609375 -6.234375 L 9.609375 0 L 8.171875 0 L 8.171875 -6.1875 C 8.171875 -6.78125 8.097656 -7.253906 7.953125 -7.609375 C 7.804688 -7.960938 7.578125 -8.21875 7.265625 -8.375 C 6.953125 -8.53125 6.539062 -8.609375 6.03125 -8.609375 C 5.15625 -8.609375 4.445312 -8.320312 3.90625 -7.75 C 3.375 -7.175781 3.109375 -6.25 3.109375 -4.96875 L 3.109375 0 Z M 1.6875 0 "/></g></g></g><g fill="#000000" fill-opacity="1"><g transform="translate(250.840139, 547.44458)"><g><path d="M 1.9375 4.109375 C 1.613281 4.109375 1.304688 4.078125 1.015625 4.015625 C 0.734375 3.960938 0.492188 3.890625 0.296875 3.796875 L 0.546875 2.65625 L 0.703125 2.609375 C 0.847656 2.679688 1.023438 2.738281 1.234375 2.78125 C 1.441406 2.832031 1.660156 2.859375 1.890625 2.859375 C 2.273438 2.859375 2.597656 2.804688 2.859375 2.703125 C 3.117188 2.597656 3.335938 2.421875 3.515625 2.171875 C 3.703125 1.929688 3.875 1.597656 4.03125 1.171875 L 4.375 0.234375 L 0.484375 -9.671875 L 2.03125 -9.671875 L 5.078125 -1.78125 L 5.25 -1.78125 L 8.1875 -9.671875 L 9.65625 -9.671875 L 5.328125 1.515625 C 5.085938 2.140625 4.8125 2.640625 4.5 3.015625 C 4.195312 3.390625 3.835938 3.664062 3.421875 3.84375 C 3.015625 4.019531 2.519531 4.109375 1.9375 4.109375 Z M 1.9375 4.109375 "/></g></g></g><g fill="#000000" fill-opacity="1"><g transform="translate(261.040322, 547.44458)"><g><path d="M 1.6875 0 L 1.6875 -9.671875 L 3.046875 -9.671875 L 3.046875 -8.25 L 3.234375 -8.21875 C 3.554688 -8.757812 3.945312 -9.164062 4.40625 -9.4375 C 4.875 -9.71875 5.4375 -9.859375 6.09375 -9.859375 C 6.84375 -9.859375 7.421875 -9.71875 7.828125 -9.4375 C 8.234375 -9.15625 8.550781 -8.695312 8.78125 -8.0625 L 8.96875 -8.0625 C 9.300781 -8.65625 9.710938 -9.101562 10.203125 -9.40625 C 10.691406 -9.707031 11.289062 -9.859375 12 -9.859375 C 13 -9.859375 13.738281 -9.585938 14.21875 -9.046875 C 14.707031 -8.515625 14.953125 -7.695312 14.953125 -6.59375 L 14.953125 0 L 13.53125 0 L 13.53125 -6.5625 C 13.53125 -7.257812 13.378906 -7.773438 13.078125 -8.109375 C 12.785156 -8.441406 12.3125 -8.609375 11.65625 -8.609375 C 10.882812 -8.609375 10.253906 -8.328125 9.765625 -7.765625 C 9.273438 -7.210938 9.03125 -6.289062 9.03125 -5 L 9.03125 0 L 7.609375 0 L 7.609375 -6.5625 C 7.609375 -7.257812 7.457031 -7.773438 7.15625 -8.109375 C 6.863281 -8.441406 6.390625 -8.609375 5.734375 -8.609375 C 4.960938 -8.609375 4.332031 -8.335938 3.84375 -7.796875 C 3.351562 -7.253906 3.109375 -6.375 3.109375 -5.15625 L 3.109375 0 Z M 1.6875 0 "/></g></g></g><g fill="#000000" fill-opacity="1"><g transform="translate(277.529, 547.44458)"><g><path d="M 5.546875 0.1875 C 4.640625 0.1875 3.847656 -0.00390625 3.171875 -0.390625 C 2.492188 -0.773438 1.972656 -1.34375 1.609375 -2.09375 C 1.242188 -2.851562 1.0625 -3.765625 1.0625 -4.828125 C 1.0625 -5.898438 1.242188 -6.8125 1.609375 -7.5625 C 1.972656 -8.320312 2.492188 -8.894531 3.171875 -9.28125 C 3.847656 -9.664062 4.640625 -9.859375 5.546875 -9.859375 C 6.460938 -9.859375 7.257812 -9.664062 7.9375 -9.28125 C 8.613281 -8.894531 9.132812 -8.320312 9.5 -7.5625 C 9.863281 -6.8125 10.046875 -5.898438 10.046875 -4.828125 C 10.046875 -3.765625 9.863281 -2.851562 9.5 -2.09375 C 9.132812 -1.34375 8.613281 -0.773438 7.9375 -0.390625 C 7.257812 -0.00390625 6.460938 0.1875 5.546875 0.1875 Z M 5.546875 -1.09375 C 6.515625 -1.09375 7.253906 -1.394531 7.765625 -2 C 8.273438 -2.613281 8.53125 -3.554688 8.53125 -4.828125 C 8.53125 -6.109375 8.273438 -7.050781 7.765625 -7.65625 C 7.253906 -8.269531 6.515625 -8.578125 5.546875 -8.578125 C 4.585938 -8.578125 3.847656 -8.269531 3.328125 -7.65625 C 2.816406 -7.050781 2.5625 -6.109375 2.5625 -4.828125 C 2.5625 -3.554688 2.816406 -2.613281 3.328125 -2 C 3.847656 -1.394531 4.585938 -1.09375 5.546875 -1.09375 Z M 5.546875 -1.09375 "/></g></g></g><g fill="#000000" fill-opacity="1"><g transform="translate(288.632546, 547.44458)"><g><path d="M 4.78125 0.1875 C 3.6875 0.1875 2.867188 -0.0976562 2.328125 -0.671875 C 1.796875 -1.253906 1.53125 -2.109375 1.53125 -3.234375 L 1.53125 -9.671875 L 2.96875 -9.671875 L 2.96875 -3.265625 C 2.96875 -1.796875 3.65625 -1.0625 5.03125 -1.0625 C 5.914062 -1.0625 6.609375 -1.347656 7.109375 -1.921875 C 7.617188 -2.492188 7.875 -3.425781 7.875 -4.71875 L 7.875 -9.671875 L 9.3125 -9.671875 L 9.3125 0 L 7.953125 0 L 7.953125 -1.515625 L 7.78125 -1.5625 C 7.445312 -0.96875 7.046875 -0.523438 6.578125 -0.234375 C 6.109375 0.046875 5.507812 0.1875 4.78125 0.1875 Z M 4.78125 0.1875 "/></g></g></g><g fill="#000000" fill-opacity="1"><g transform="translate(299.622081, 547.44458)"><g><path d="M 4.40625 0.1875 C 3.800781 0.1875 3.238281 0.109375 2.71875 -0.046875 C 2.207031 -0.210938 1.769531 -0.4375 1.40625 -0.71875 C 1.050781 -1 0.800781 -1.316406 0.65625 -1.671875 L 1.5 -2.546875 L 1.6875 -2.546875 C 2 -2.066406 2.375 -1.703125 2.8125 -1.453125 C 3.257812 -1.210938 3.789062 -1.09375 4.40625 -1.09375 C 5.125 -1.09375 5.664062 -1.234375 6.03125 -1.515625 C 6.40625 -1.796875 6.59375 -2.179688 6.59375 -2.671875 C 6.59375 -3.054688 6.476562 -3.367188 6.25 -3.609375 C 6.03125 -3.859375 5.671875 -4.046875 5.171875 -4.171875 L 3.53125 -4.578125 C 2.664062 -4.785156 2.03125 -5.117188 1.625 -5.578125 C 1.226562 -6.035156 1.03125 -6.601562 1.03125 -7.28125 C 1.03125 -7.800781 1.160156 -8.253906 1.421875 -8.640625 C 1.691406 -9.035156 2.082031 -9.335938 2.59375 -9.546875 C 3.101562 -9.753906 3.703125 -9.859375 4.390625 -9.859375 C 5.285156 -9.859375 5.988281 -9.734375 6.5 -9.484375 C 7.007812 -9.234375 7.40625 -8.890625 7.6875 -8.453125 L 6.890625 -7.65625 L 6.71875 -7.65625 C 6.40625 -8.007812 6.066406 -8.265625 5.703125 -8.421875 C 5.335938 -8.585938 4.898438 -8.671875 4.390625 -8.671875 C 3.753906 -8.671875 3.265625 -8.554688 2.921875 -8.328125 C 2.585938 -8.097656 2.421875 -7.765625 2.421875 -7.328125 C 2.421875 -6.941406 2.539062 -6.628906 2.78125 -6.390625 C 3.019531 -6.148438 3.4375 -5.957031 4.03125 -5.8125 L 5.640625 -5.421875 C 6.484375 -5.222656 7.09375 -4.890625 7.46875 -4.421875 C 7.84375 -3.960938 8.03125 -3.382812 8.03125 -2.6875 C 8.03125 -2.125 7.894531 -1.625 7.625 -1.1875 C 7.351562 -0.757812 6.945312 -0.421875 6.40625 -0.171875 C 5.863281 0.0664062 5.195312 0.1875 4.40625 0.1875 Z M 4.40625 0.1875 "/></g></g></g><g fill="#000000" fill-opacity="1"><g transform="translate(219.649556, 572.158605)"><g><path d="M 3.328125 0 L 1.9375 0 L 1.9375 -12.828125 L 4.171875 -12.828125 L 8.0625 -1.96875 L 8.25 -1.96875 L 12.140625 -12.828125 L 14.296875 -12.828125 L 14.296875 0 L 12.859375 0 L 12.859375 -10.46875 L 12.640625 -10.5 L 8.859375 0 L 7.359375 0 L 3.546875 -10.5 L 3.328125 -10.46875 Z M 3.328125 0 "/></g></g></g><g fill="#000000" fill-opacity="1"><g transform="translate(235.883894, 572.158605)"><g><path d="M 9.21875 -4.515625 L 2.578125 -4.515625 C 2.609375 -3.335938 2.882812 -2.472656 3.40625 -1.921875 C 3.9375 -1.367188 4.660156 -1.09375 5.578125 -1.09375 C 6.265625 -1.09375 6.816406 -1.210938 7.234375 -1.453125 C 7.660156 -1.703125 7.992188 -2.09375 8.234375 -2.625 L 8.421875 -2.625 L 9.34375 -2.078125 C 9.0625 -1.367188 8.613281 -0.8125 8 -0.40625 C 7.382812 -0.0078125 6.578125 0.1875 5.578125 0.1875 C 4.640625 0.1875 3.832031 0.00390625 3.15625 -0.359375 C 2.488281 -0.734375 1.972656 -1.296875 1.609375 -2.046875 C 1.242188 -2.796875 1.0625 -3.722656 1.0625 -4.828125 C 1.0625 -5.929688 1.253906 -6.859375 1.640625 -7.609375 C 2.023438 -8.367188 2.546875 -8.929688 3.203125 -9.296875 C 3.867188 -9.671875 4.628906 -9.859375 5.484375 -9.859375 C 6.722656 -9.859375 7.691406 -9.507812 8.390625 -8.8125 C 9.085938 -8.113281 9.4375 -7.078125 9.4375 -5.703125 C 9.4375 -5.160156 9.425781 -4.796875 9.40625 -4.609375 Z M 8.03125 -5.703125 C 8.007812 -6.734375 7.78125 -7.484375 7.34375 -7.953125 C 6.90625 -8.421875 6.285156 -8.65625 5.484375 -8.65625 C 4.640625 -8.65625 3.972656 -8.414062 3.484375 -7.9375 C 3.003906 -7.46875 2.710938 -6.722656 2.609375 -5.703125 Z M 8.03125 -5.703125 "/></g></g></g><g fill="#000000" fill-opacity="1"><g transform="translate(246.198088, 572.158605)"><g><path d="M 4.40625 0.1875 C 3.800781 0.1875 3.238281 0.109375 2.71875 -0.046875 C 2.207031 -0.210938 1.769531 -0.4375 1.40625 -0.71875 C 1.050781 -1 0.800781 -1.316406 0.65625 -1.671875 L 1.5 -2.546875 L 1.6875 -2.546875 C 2 -2.066406 2.375 -1.703125 2.8125 -1.453125 C 3.257812 -1.210938 3.789062 -1.09375 4.40625 -1.09375 C 5.125 -1.09375 5.664062 -1.234375 6.03125 -1.515625 C 6.40625 -1.796875 6.59375 -2.179688 6.59375 -2.671875 C 6.59375 -3.054688 6.476562 -3.367188 6.25 -3.609375 C 6.03125 -3.859375 5.671875 -4.046875 5.171875 -4.171875 L 3.53125 -4.578125 C 2.664062 -4.785156 2.03125 -5.117188 1.625 -5.578125 C 1.226562 -6.035156 1.03125 -6.601562 1.03125 -7.28125 C 1.03125 -7.800781 1.160156 -8.253906 1.421875 -8.640625 C 1.691406 -9.035156 2.082031 -9.335938 2.59375 -9.546875 C 3.101562 -9.753906 3.703125 -9.859375 4.390625 -9.859375 C 5.285156 -9.859375 5.988281 -9.734375 6.5 -9.484375 C 7.007812 -9.234375 7.40625 -8.890625 7.6875 -8.453125 L 6.890625 -7.65625 L 6.71875 -7.65625 C 6.40625 -8.007812 6.066406 -8.265625 5.703125 -8.421875 C 5.335938 -8.585938 4.898438 -8.671875 4.390625 -8.671875 C 3.753906 -8.671875 3.265625 -8.554688 2.921875 -8.328125 C 2.585938 -8.097656 2.421875 -7.765625 2.421875 -7.328125 C 2.421875 -6.941406 2.539062 -6.628906 2.78125 -6.390625 C 3.019531 -6.148438 3.4375 -5.957031 4.03125 -5.8125 L 5.640625 -5.421875 C 6.484375 -5.222656 7.09375 -4.890625 7.46875 -4.421875 C 7.84375 -3.960938 8.03125 -3.382812 8.03125 -2.6875 C 8.03125 -2.125 7.894531 -1.625 7.625 -1.1875 C 7.351562 -0.757812 6.945312 -0.421875 6.40625 -0.171875 C 5.863281 0.0664062 5.195312 0.1875 4.40625 0.1875 Z M 4.40625 0.1875 "/></g></g></g><g fill="#000000" fill-opacity="1"><g transform="translate(255.144074, 572.158605)"><g><path d="M 4.40625 0.1875 C 3.800781 0.1875 3.238281 0.109375 2.71875 -0.046875 C 2.207031 -0.210938 1.769531 -0.4375 1.40625 -0.71875 C 1.050781 -1 0.800781 -1.316406 0.65625 -1.671875 L 1.5 -2.546875 L 1.6875 -2.546875 C 2 -2.066406 2.375 -1.703125 2.8125 -1.453125 C 3.257812 -1.210938 3.789062 -1.09375 4.40625 -1.09375 C 5.125 -1.09375 5.664062 -1.234375 6.03125 -1.515625 C 6.40625 -1.796875 6.59375 -2.179688 6.59375 -2.671875 C 6.59375 -3.054688 6.476562 -3.367188 6.25 -3.609375 C 6.03125 -3.859375 5.671875 -4.046875 5.171875 -4.171875 L 3.53125 -4.578125 C 2.664062 -4.785156 2.03125 -5.117188 1.625 -5.578125 C 1.226562 -6.035156 1.03125 -6.601562 1.03125 -7.28125 C 1.03125 -7.800781 1.160156 -8.253906 1.421875 -8.640625 C 1.691406 -9.035156 2.082031 -9.335938 2.59375 -9.546875 C 3.101562 -9.753906 3.703125 -9.859375 4.390625 -9.859375 C 5.285156 -9.859375 5.988281 -9.734375 6.5 -9.484375 C 7.007812 -9.234375 7.40625 -8.890625 7.6875 -8.453125 L 6.890625 -7.65625 L 6.71875 -7.65625 C 6.40625 -8.007812 6.066406 -8.265625 5.703125 -8.421875 C 5.335938 -8.585938 4.898438 -8.671875 4.390625 -8.671875 C 3.753906 -8.671875 3.265625 -8.554688 2.921875 -8.328125 C 2.585938 -8.097656 2.421875 -7.765625 2.421875 -7.328125 C 2.421875 -6.941406 2.539062 -6.628906 2.78125 -6.390625 C 3.019531 -6.148438 3.4375 -5.957031 4.03125 -5.8125 L 5.640625 -5.421875 C 6.484375 -5.222656 7.09375 -4.890625 7.46875 -4.421875 C 7.84375 -3.960938 8.03125 -3.382812 8.03125 -2.6875 C 8.03125 -2.125 7.894531 -1.625 7.625 -1.1875 C 7.351562 -0.757812 6.945312 -0.421875 6.40625 -0.171875 C 5.863281 0.0664062 5.195312 0.1875 4.40625 0.1875 Z M 4.40625 0.1875 "/></g></g></g><g fill="#000000" fill-opacity="1"><g transform="translate(264.090059, 572.158605)"><g><path d="M 3.984375 0.1875 C 3.035156 0.1875 2.289062 -0.0625 1.75 -0.5625 C 1.21875 -1.0625 0.953125 -1.769531 0.953125 -2.6875 C 0.953125 -3.257812 1.070312 -3.742188 1.3125 -4.140625 C 1.550781 -4.535156 1.914062 -4.859375 2.40625 -5.109375 C 2.90625 -5.359375 3.554688 -5.550781 4.359375 -5.6875 C 5.054688 -5.800781 5.585938 -5.929688 5.953125 -6.078125 C 6.328125 -6.222656 6.578125 -6.382812 6.703125 -6.5625 C 6.828125 -6.75 6.890625 -6.976562 6.890625 -7.25 C 6.890625 -7.6875 6.738281 -8.019531 6.4375 -8.25 C 6.132812 -8.488281 5.648438 -8.609375 4.984375 -8.609375 C 4.359375 -8.609375 3.820312 -8.488281 3.375 -8.25 C 2.925781 -8.007812 2.515625 -7.648438 2.140625 -7.171875 L 1.96875 -7.171875 L 1.265625 -8.15625 C 1.671875 -8.675781 2.1875 -9.085938 2.8125 -9.390625 C 3.445312 -9.703125 4.171875 -9.859375 4.984375 -9.859375 C 6.117188 -9.859375 6.957031 -9.609375 7.5 -9.109375 C 8.039062 -8.609375 8.3125 -7.914062 8.3125 -7.03125 L 8.3125 -1.90625 C 8.3125 -1.363281 8.539062 -1.09375 9 -1.09375 C 9.15625 -1.09375 9.300781 -1.117188 9.4375 -1.171875 L 9.5625 -1.140625 L 9.734375 -0.15625 C 9.628906 -0.0820312 9.488281 -0.03125 9.3125 0 C 9.132812 0.0390625 8.957031 0.0625 8.78125 0.0625 C 8.25 0.0625 7.847656 -0.0507812 7.578125 -0.28125 C 7.304688 -0.507812 7.128906 -0.851562 7.046875 -1.3125 L 6.875 -1.328125 C 6.59375 -0.816406 6.21875 -0.4375 5.75 -0.1875 C 5.28125 0.0625 4.691406 0.1875 3.984375 0.1875 Z M 4.3125 -0.953125 C 4.84375 -0.953125 5.304688 -1.078125 5.703125 -1.328125 C 6.097656 -1.578125 6.398438 -1.925781 6.609375 -2.375 C 6.828125 -2.820312 6.9375 -3.34375 6.9375 -3.9375 L 6.9375 -5.171875 L 6.765625 -5.203125 C 6.546875 -5.046875 6.28125 -4.914062 5.96875 -4.8125 C 5.664062 -4.71875 5.234375 -4.628906 4.671875 -4.546875 C 4.109375 -4.472656 3.660156 -4.351562 3.328125 -4.1875 C 3.003906 -4.03125 2.769531 -3.832031 2.625 -3.59375 C 2.488281 -3.351562 2.421875 -3.050781 2.421875 -2.6875 C 2.421875 -2.125 2.585938 -1.691406 2.921875 -1.390625 C 3.253906 -1.097656 3.71875 -0.953125 4.3125 -0.953125 Z M 4.3125 -0.953125 "/></g></g></g><g fill="#000000" fill-opacity="1"><g transform="translate(274.097289, 572.158605)"><g><path d="M 4.984375 4.109375 C 3.453125 4.109375 2.335938 3.851562 1.640625 3.34375 C 0.941406 2.832031 0.59375 2.15625 0.59375 1.3125 C 0.59375 0.769531 0.753906 0.335938 1.078125 0.015625 C 1.410156 -0.304688 1.890625 -0.535156 2.515625 -0.671875 L 2.515625 -0.859375 C 2.210938 -1.023438 1.984375 -1.222656 1.828125 -1.453125 C 1.679688 -1.679688 1.609375 -1.953125 1.609375 -2.265625 C 1.609375 -2.640625 1.726562 -2.941406 1.96875 -3.171875 C 2.207031 -3.410156 2.5625 -3.59375 3.03125 -3.71875 L 3.03125 -3.90625 C 1.976562 -4.457031 1.453125 -5.359375 1.453125 -6.609375 C 1.453125 -7.242188 1.59375 -7.804688 1.875 -8.296875 C 2.164062 -8.785156 2.578125 -9.164062 3.109375 -9.4375 C 3.640625 -9.71875 4.257812 -9.859375 4.96875 -9.859375 C 5.78125 -9.859375 6.457031 -9.679688 7 -9.328125 C 7.207031 -9.554688 7.359375 -9.800781 7.453125 -10.0625 C 7.554688 -10.320312 7.625 -10.613281 7.65625 -10.9375 L 7.84375 -11.0625 L 9.015625 -10.78125 C 8.960938 -10.28125 8.816406 -9.859375 8.578125 -9.515625 C 8.335938 -9.179688 8.003906 -8.90625 7.578125 -8.6875 L 7.578125 -8.5 C 7.878906 -8.257812 8.101562 -7.972656 8.25 -7.640625 C 8.40625 -7.304688 8.484375 -6.921875 8.484375 -6.484375 C 8.484375 -5.878906 8.335938 -5.332031 8.046875 -4.84375 C 7.753906 -4.351562 7.34375 -3.96875 6.8125 -3.6875 C 6.28125 -3.414062 5.664062 -3.28125 4.96875 -3.28125 C 4.882812 -3.28125 4.738281 -3.285156 4.53125 -3.296875 C 4.289062 -3.304688 4.117188 -3.3125 4.015625 -3.3125 C 3.703125 -3.3125 3.457031 -3.234375 3.28125 -3.078125 C 3.101562 -2.921875 3.015625 -2.71875 3.015625 -2.46875 C 3.015625 -2.164062 3.109375 -1.941406 3.296875 -1.796875 C 3.492188 -1.660156 3.816406 -1.582031 4.265625 -1.5625 L 6.5625 -1.484375 C 7.550781 -1.453125 8.28125 -1.222656 8.75 -0.796875 C 9.226562 -0.367188 9.46875 0.234375 9.46875 1.015625 C 9.46875 1.585938 9.3125 2.101562 9 2.5625 C 8.695312 3.03125 8.207031 3.40625 7.53125 3.6875 C 6.863281 3.96875 6.015625 4.109375 4.984375 4.109375 Z M 4.96875 -4.515625 C 5.65625 -4.515625 6.179688 -4.691406 6.546875 -5.046875 C 6.921875 -5.398438 7.109375 -5.898438 7.109375 -6.546875 C 7.109375 -7.210938 6.921875 -7.726562 6.546875 -8.09375 C 6.179688 -8.457031 5.65625 -8.640625 4.96875 -8.640625 C 4.28125 -8.640625 3.753906 -8.457031 3.390625 -8.09375 C 3.023438 -7.726562 2.84375 -7.210938 2.84375 -6.546875 C 2.84375 -5.898438 3.023438 -5.398438 3.390625 -5.046875 C 3.753906 -4.691406 4.28125 -4.515625 4.96875 -4.515625 Z M 4.984375 2.875 C 5.691406 2.875 6.269531 2.796875 6.71875 2.640625 C 7.175781 2.484375 7.503906 2.273438 7.703125 2.015625 C 7.910156 1.753906 8.015625 1.460938 8.015625 1.140625 C 8.015625 0.847656 7.957031 0.613281 7.84375 0.4375 C 7.738281 0.269531 7.566406 0.140625 7.328125 0.046875 C 7.085938 -0.0351562 6.757812 -0.0859375 6.34375 -0.109375 L 4.171875 -0.21875 L 3.875 -0.21875 C 2.65625 -0.195312 2.046875 0.269531 2.046875 1.1875 C 2.046875 2.3125 3.023438 2.875 4.984375 2.875 Z M 4.984375 2.875 "/></g></g></g><g fill="#000000" fill-opacity="1"><g transform="translate(284.008037, 572.158605)"><g><path d="M 9.21875 -4.515625 L 2.578125 -4.515625 C 2.609375 -3.335938 2.882812 -2.472656 3.40625 -1.921875 C 3.9375 -1.367188 4.660156 -1.09375 5.578125 -1.09375 C 6.265625 -1.09375 6.816406 -1.210938 7.234375 -1.453125 C 7.660156 -1.703125 7.992188 -2.09375 8.234375 -2.625 L 8.421875 -2.625 L 9.34375 -2.078125 C 9.0625 -1.367188 8.613281 -0.8125 8 -0.40625 C 7.382812 -0.0078125 6.578125 0.1875 5.578125 0.1875 C 4.640625 0.1875 3.832031 0.00390625 3.15625 -0.359375 C 2.488281 -0.734375 1.972656 -1.296875 1.609375 -2.046875 C 1.242188 -2.796875 1.0625 -3.722656 1.0625 -4.828125 C 1.0625 -5.929688 1.253906 -6.859375 1.640625 -7.609375 C 2.023438 -8.367188 2.546875 -8.929688 3.203125 -9.296875 C 3.867188 -9.671875 4.628906 -9.859375 5.484375 -9.859375 C 6.722656 -9.859375 7.691406 -9.507812 8.390625 -8.8125 C 9.085938 -8.113281 9.4375 -7.078125 9.4375 -5.703125 C 9.4375 -5.160156 9.425781 -4.796875 9.40625 -4.609375 Z M 8.03125 -5.703125 C 8.007812 -6.734375 7.78125 -7.484375 7.34375 -7.953125 C 6.90625 -8.421875 6.285156 -8.65625 5.484375 -8.65625 C 4.640625 -8.65625 3.972656 -8.414062 3.484375 -7.9375 C 3.003906 -7.46875 2.710938 -6.722656 2.609375 -5.703125 Z M 8.03125 -5.703125 "/></g></g></g><g clip-path="url(#dfc60880db)"><g clip-path="url(#997b843c71)"><path fill="#eff6ff" d="M 195.261719 348.316406 L 318.699219 348.316406 L 318.699219 409.914062 L 195.261719 409.914062 Z M 195.261719 348.316406 " fill-opacity="1" fill-rule="nonzero"/></g></g><g clip-path="url(#c300d9b895)"><g clip-path="url(#9b4d57efb4)"><path stroke-linecap="butt" transform="matrix(0.74891, 0, 0, 0.74891, 195.263091, 348.315708)" fill="none" stroke-linejoin="miter" d="M 3.998774 0.000932702 L 160.841333 0.000932702 C 161.90538 0.000932702 162.922483 0.423422 163.673575 1.169298 C 164.424667 1.920389 164.84194 2.937493 164.84194 4.001539 L 164.84194 78.250087 C 164.84194 79.308918 164.424667 80.326021 163.673575 81.077113 C 162.922483 81.828204 161.90538 82.245478 160.841333 82.245478 L 3.998774 82.245478 C 2.939944 82.245478 1.92284 81.828204 1.171749 81.077113 C 0.420657 80.326021 -0.0018322 79.308918 -0.0018322 78.250087 L -0.0018322 4.001539 C -0.0018322 2.937493 0.420657 1.920389 1.171749 1.169298 C 1.92284 0.423422 2.939944 0.000932702 3.998774 0.000932702 Z M 3.998774 0.000932702 " stroke="#1d4ed8" stroke-width="6" stroke-opacity="1" stroke-miterlimit="4"/></g></g><g fill="#000000" fill-opacity="1"><g transform="translate(222.247249, 385.760438)"><g><path d="M 3.40625 0 L 1.9375 0 L 1.9375 -12.828125 L 3.796875 -12.828125 L 10.046875 -3.03125 L 10.265625 -3.0625 L 10.265625 -12.828125 L 11.734375 -12.828125 L 11.734375 0 L 10.15625 0 L 3.625 -10.484375 L 3.40625 -10.453125 Z M 3.40625 0 "/></g></g></g><g fill="#000000" fill-opacity="1"><g transform="translate(235.920579, 385.760438)"><g><path d="M 4.78125 0.1875 C 3.6875 0.1875 2.867188 -0.0976562 2.328125 -0.671875 C 1.796875 -1.253906 1.53125 -2.109375 1.53125 -3.234375 L 1.53125 -9.671875 L 2.96875 -9.671875 L 2.96875 -3.265625 C 2.96875 -1.796875 3.65625 -1.0625 5.03125 -1.0625 C 5.914062 -1.0625 6.609375 -1.347656 7.109375 -1.921875 C 7.617188 -2.492188 7.875 -3.425781 7.875 -4.71875 L 7.875 -9.671875 L 9.3125 -9.671875 L 9.3125 0 L 7.953125 0 L 7.953125 -1.515625 L 7.78125 -1.5625 C 7.445312 -0.96875 7.046875 -0.523438 6.578125 -0.234375 C 6.109375 0.046875 5.507812 0.1875 4.78125 0.1875 Z M 4.78125 0.1875 "/></g></g></g><g fill="#000000" fill-opacity="1"><g transform="translate(246.910114, 385.760438)"><g><path d="M 3.859375 0.1875 C 3.171875 0.1875 2.628906 -0.00390625 2.234375 -0.390625 C 1.847656 -0.785156 1.65625 -1.367188 1.65625 -2.140625 L 1.65625 -13.5625 L 3.078125 -13.5625 L 3.078125 -2.234375 C 3.078125 -1.828125 3.15625 -1.535156 3.3125 -1.359375 C 3.46875 -1.179688 3.707031 -1.09375 4.03125 -1.09375 C 4.226562 -1.09375 4.429688 -1.125 4.640625 -1.1875 L 4.765625 -1.15625 L 4.9375 -0.03125 C 4.820312 0.03125 4.664062 0.0820312 4.46875 0.125 C 4.28125 0.164062 4.078125 0.1875 3.859375 0.1875 Z M 3.859375 0.1875 "/></g></g></g><g fill="#000000" fill-opacity="1"><g transform="translate(252.172458, 385.760438)"><g><path d="M 3.859375 0.1875 C 3.171875 0.1875 2.628906 -0.00390625 2.234375 -0.390625 C 1.847656 -0.785156 1.65625 -1.367188 1.65625 -2.140625 L 1.65625 -13.5625 L 3.078125 -13.5625 L 3.078125 -2.234375 C 3.078125 -1.828125 3.15625 -1.535156 3.3125 -1.359375 C 3.46875 -1.179688 3.707031 -1.09375 4.03125 -1.09375 C 4.226562 -1.09375 4.429688 -1.125 4.640625 -1.1875 L 4.765625 -1.15625 L 4.9375 -0.03125 C 4.820312 0.03125 4.664062 0.0820312 4.46875 0.125 C 4.28125 0.164062 4.078125 0.1875 3.859375 0.1875 Z M 3.859375 0.1875 "/></g></g></g><g fill="#000000" fill-opacity="1"><g transform="translate(257.434802, 385.760438)"><g><path d="M 2.40625 -11.546875 C 2.101562 -11.546875 1.851562 -11.640625 1.65625 -11.828125 C 1.46875 -12.015625 1.375 -12.257812 1.375 -12.5625 C 1.375 -12.851562 1.46875 -13.09375 1.65625 -13.28125 C 1.851562 -13.46875 2.101562 -13.5625 2.40625 -13.5625 C 2.707031 -13.5625 2.953125 -13.46875 3.140625 -13.28125 C 3.335938 -13.09375 3.4375 -12.851562 3.4375 -12.5625 C 3.4375 -12.257812 3.335938 -12.015625 3.140625 -11.828125 C 2.953125 -11.640625 2.707031 -11.546875 2.40625 -11.546875 Z M 1.6875 0 L 1.6875 -9.671875 L 3.109375 -9.671875 L 3.109375 0 Z M 1.6875 0 "/></g></g></g><g fill="#000000" fill-opacity="1"><g transform="translate(262.232312, 385.760438)"><g><path d="M 2.15625 0 L 2.15625 -8.515625 L 0.46875 -8.515625 L 0.46875 -9.6875 L 2.15625 -9.6875 C 2.050781 -10.101562 2 -10.503906 2 -10.890625 C 2 -11.515625 2.128906 -12.039062 2.390625 -12.46875 C 2.660156 -12.894531 3.03125 -13.210938 3.5 -13.421875 C 3.976562 -13.640625 4.53125 -13.75 5.15625 -13.75 C 6.113281 -13.75 6.851562 -13.539062 7.375 -13.125 L 6.8125 -12.109375 L 6.640625 -12.078125 C 6.253906 -12.378906 5.757812 -12.53125 5.15625 -12.53125 C 4.582031 -12.53125 4.148438 -12.382812 3.859375 -12.09375 C 3.578125 -11.800781 3.4375 -11.390625 3.4375 -10.859375 C 3.4375 -10.523438 3.488281 -10.132812 3.59375 -9.6875 L 6.671875 -9.6875 L 6.671875 -8.515625 L 3.59375 -8.515625 L 3.59375 0 Z M 2.15625 0 "/></g></g></g><g fill="#000000" fill-opacity="1"><g transform="translate(269.125982, 385.760438)"><g><path d="M 2.40625 -11.546875 C 2.101562 -11.546875 1.851562 -11.640625 1.65625 -11.828125 C 1.46875 -12.015625 1.375 -12.257812 1.375 -12.5625 C 1.375 -12.851562 1.46875 -13.09375 1.65625 -13.28125 C 1.851562 -13.46875 2.101562 -13.5625 2.40625 -13.5625 C 2.707031 -13.5625 2.953125 -13.46875 3.140625 -13.28125 C 3.335938 -13.09375 3.4375 -12.851562 3.4375 -12.5625 C 3.4375 -12.257812 3.335938 -12.015625 3.140625 -11.828125 C 2.953125 -11.640625 2.707031 -11.546875 2.40625 -11.546875 Z M 1.6875 0 L 1.6875 -9.671875 L 3.109375 -9.671875 L 3.109375 0 Z M 1.6875 0 "/></g></g></g><g fill="#000000" fill-opacity="1"><g transform="translate(273.923492, 385.760438)"><g><path d="M 9.21875 -4.515625 L 2.578125 -4.515625 C 2.609375 -3.335938 2.882812 -2.472656 3.40625 -1.921875 C 3.9375 -1.367188 4.660156 -1.09375 5.578125 -1.09375 C 6.265625 -1.09375 6.816406 -1.210938 7.234375 -1.453125 C 7.660156 -1.703125 7.992188 -2.09375 8.234375 -2.625 L 8.421875 -2.625 L 9.34375 -2.078125 C 9.0625 -1.367188 8.613281 -0.8125 8 -0.40625 C 7.382812 -0.0078125 6.578125 0.1875 5.578125 0.1875 C 4.640625 0.1875 3.832031 0.00390625 3.15625 -0.359375 C 2.488281 -0.734375 1.972656 -1.296875 1.609375 -2.046875 C 1.242188 -2.796875 1.0625 -3.722656 1.0625 -4.828125 C 1.0625 -5.929688 1.253906 -6.859375 1.640625 -7.609375 C 2.023438 -8.367188 2.546875 -8.929688 3.203125 -9.296875 C 3.867188 -9.671875 4.628906 -9.859375 5.484375 -9.859375 C 6.722656 -9.859375 7.691406 -9.507812 8.390625 -8.8125 C 9.085938 -8.113281 9.4375 -7.078125 9.4375 -5.703125 C 9.4375 -5.160156 9.425781 -4.796875 9.40625 -4.609375 Z M 8.03125 -5.703125 C 8.007812 -6.734375 7.78125 -7.484375 7.34375 -7.953125 C 6.90625 -8.421875 6.285156 -8.65625 5.484375 -8.65625 C 4.640625 -8.65625 3.972656 -8.414062 3.484375 -7.9375 C 3.003906 -7.46875 2.710938 -6.722656 2.609375 -5.703125 Z M 8.03125 -5.703125 "/></g></g></g><g fill="#000000" fill-opacity="1"><g transform="translate(284.237686, 385.760438)"><g><path d="M 1.6875 0 L 1.6875 -9.671875 L 3.046875 -9.671875 L 3.046875 -8.15625 L 3.234375 -8.109375 C 3.679688 -9.210938 4.523438 -9.765625 5.765625 -9.765625 C 6.429688 -9.765625 6.925781 -9.644531 7.25 -9.40625 L 6.890625 -8.1875 L 6.71875 -8.15625 C 6.351562 -8.34375 5.953125 -8.4375 5.515625 -8.4375 C 4.742188 -8.4375 4.148438 -8.144531 3.734375 -7.5625 C 3.316406 -6.976562 3.109375 -6.039062 3.109375 -4.75 L 3.109375 0 Z M 1.6875 0 "/></g></g></g><g clip-path="url(#f8b53e770a)"><g clip-path="url(#2f7186f08f)"><path fill="#eff6ff" d="M 376.988281 16.265625 L 499.222656 16.265625 L 499.222656 77.867188 L 376.988281 77.867188 Z M 376.988281 16.265625 " fill-opacity="1" fill-rule="nonzero"/></g></g><g clip-path="url(#3007cde74b)"><g clip-path="url(#9491d55deb)"><path stroke-linecap="butt" transform="matrix(0.74891, 0, 0, 0.74891, 376.986886, 16.268571)" fill="none" stroke-linejoin="miter" d="M 3.997254 0.00128198 L 159.264616 0.00128198 C 160.328663 0.00128198 161.345766 0.423771 162.091642 1.169647 C 162.842734 1.920739 163.265223 2.937842 163.265223 4.001889 L 163.265223 78.245225 C 163.265223 79.304056 162.842734 80.326375 162.091642 81.072251 C 161.345766 81.823343 160.328663 82.245832 159.264616 82.245832 L 3.997254 82.245832 C 2.938423 82.245832 1.92132 81.823343 1.170228 81.072251 C 0.419136 80.326375 0.00186275 79.304056 0.00186275 78.245225 L 0.00186275 4.001889 C 0.00186275 2.937842 0.419136 1.920739 1.170228 1.169647 C 1.92132 0.423771 2.938423 0.00128198 3.997254 0.00128198 Z M 3.997254 0.00128198 " stroke="#1d4ed8" stroke-width="6" stroke-opacity="1" stroke-miterlimit="4"/></g></g><g fill="#000000" fill-opacity="1"><g transform="translate(410.89846, 53.712402)"><g><path d="M 6.75 0.1875 C 5.664062 0.1875 4.710938 -0.0546875 3.890625 -0.546875 C 3.078125 -1.046875 2.4375 -1.785156 1.96875 -2.765625 C 1.507812 -3.753906 1.28125 -4.96875 1.28125 -6.40625 C 1.28125 -7.851562 1.523438 -9.066406 2.015625 -10.046875 C 2.515625 -11.035156 3.203125 -11.773438 4.078125 -12.265625 C 4.953125 -12.765625 5.960938 -13.015625 7.109375 -13.015625 C 8.335938 -13.015625 9.347656 -12.789062 10.140625 -12.34375 C 10.929688 -11.90625 11.488281 -11.25 11.8125 -10.375 L 10.828125 -9.796875 L 10.609375 -9.796875 C 10.273438 -10.460938 9.828125 -10.9375 9.265625 -11.21875 C 8.703125 -11.507812 7.984375 -11.65625 7.109375 -11.65625 C 4.296875 -11.65625 2.890625 -9.90625 2.890625 -6.40625 C 2.890625 -4.59375 3.242188 -3.265625 3.953125 -2.421875 C 4.660156 -1.585938 5.65625 -1.171875 6.9375 -1.171875 C 8.101562 -1.171875 8.976562 -1.4375 9.5625 -1.96875 C 10.144531 -2.5 10.4375 -3.34375 10.4375 -4.5 L 10.4375 -5.625 L 6.78125 -5.625 L 6.78125 -6.828125 L 11.890625 -6.828125 L 11.890625 0 L 10.5 0 L 10.5 -1.71875 L 10.3125 -1.765625 C 9.976562 -1.097656 9.507812 -0.601562 8.90625 -0.28125 C 8.300781 0.03125 7.582031 0.1875 6.75 0.1875 Z M 6.75 0.1875 "/></g></g></g><g fill="#000000" fill-opacity="1"><g transform="translate(424.229732, 53.712402)"><g><path d="M 1.6875 0 L 1.6875 -9.671875 L 3.046875 -9.671875 L 3.046875 -8.15625 L 3.234375 -8.109375 C 3.679688 -9.210938 4.523438 -9.765625 5.765625 -9.765625 C 6.429688 -9.765625 6.925781 -9.644531 7.25 -9.40625 L 6.890625 -8.1875 L 6.71875 -8.15625 C 6.351562 -8.34375 5.953125 -8.4375 5.515625 -8.4375 C 4.742188 -8.4375 4.148438 -8.144531 3.734375 -7.5625 C 3.316406 -6.976562 3.109375 -6.039062 3.109375 -4.75 L 3.109375 0 Z M 1.6875 0 "/></g></g></g><g fill="#000000" fill-opacity="1"><g transform="translate(431.702261, 53.712402)"><g><path d="M 5.546875 0.1875 C 4.640625 0.1875 3.847656 -0.00390625 3.171875 -0.390625 C 2.492188 -0.773438 1.972656 -1.34375 1.609375 -2.09375 C 1.242188 -2.851562 1.0625 -3.765625 1.0625 -4.828125 C 1.0625 -5.898438 1.242188 -6.8125 1.609375 -7.5625 C 1.972656 -8.320312 2.492188 -8.894531 3.171875 -9.28125 C 3.847656 -9.664062 4.640625 -9.859375 5.546875 -9.859375 C 6.460938 -9.859375 7.257812 -9.664062 7.9375 -9.28125 C 8.613281 -8.894531 9.132812 -8.320312 9.5 -7.5625 C 9.863281 -6.8125 10.046875 -5.898438 10.046875 -4.828125 C 10.046875 -3.765625 9.863281 -2.851562 9.5 -2.09375 C 9.132812 -1.34375 8.613281 -0.773438 7.9375 -0.390625 C 7.257812 -0.00390625 6.460938 0.1875 5.546875 0.1875 Z M 5.546875 -1.09375 C 6.515625 -1.09375 7.253906 -1.394531 7.765625 -2 C 8.273438 -2.613281 8.53125 -3.554688 8.53125 -4.828125 C 8.53125 -6.109375 8.273438 -7.050781 7.765625 -7.65625 C 7.253906 -8.269531 6.515625 -8.578125 5.546875 -8.578125 C 4.585938 -8.578125 3.847656 -8.269531 3.328125 -7.65625 C 2.816406 -7.050781 2.5625 -6.109375 2.5625 -4.828125 C 2.5625 -3.554688 2.816406 -2.613281 3.328125 -2 C 3.847656 -1.394531 4.585938 -1.09375 5.546875 -1.09375 Z M 5.546875 -1.09375 "/></g></g></g><g fill="#000000" fill-opacity="1"><g transform="translate(442.805807, 53.712402)"><g><path d="M 4.78125 0.1875 C 3.6875 0.1875 2.867188 -0.0976562 2.328125 -0.671875 C 1.796875 -1.253906 1.53125 -2.109375 1.53125 -3.234375 L 1.53125 -9.671875 L 2.96875 -9.671875 L 2.96875 -3.265625 C 2.96875 -1.796875 3.65625 -1.0625 5.03125 -1.0625 C 5.914062 -1.0625 6.609375 -1.347656 7.109375 -1.921875 C 7.617188 -2.492188 7.875 -3.425781 7.875 -4.71875 L 7.875 -9.671875 L 9.3125 -9.671875 L 9.3125 0 L 7.953125 0 L 7.953125 -1.515625 L 7.78125 -1.5625 C 7.445312 -0.96875 7.046875 -0.523438 6.578125 -0.234375 C 6.109375 0.046875 5.507812 0.1875 4.78125 0.1875 Z M 4.78125 0.1875 "/></g></g></g><g fill="#000000" fill-opacity="1"><g transform="translate(453.795341, 53.712402)"><g><path d="M 1.6875 3.921875 L 1.6875 -9.671875 L 3.109375 -9.671875 L 3.109375 -8.234375 L 3.296875 -8.1875 C 4.015625 -9.300781 5.070312 -9.859375 6.46875 -9.859375 C 7.269531 -9.859375 7.972656 -9.671875 8.578125 -9.296875 C 9.179688 -8.929688 9.648438 -8.375 9.984375 -7.625 C 10.316406 -6.875 10.484375 -5.941406 10.484375 -4.828125 C 10.484375 -3.722656 10.304688 -2.796875 9.953125 -2.046875 C 9.609375 -1.304688 9.125 -0.75 8.5 -0.375 C 7.882812 0 7.171875 0.1875 6.359375 0.1875 C 5.703125 0.1875 5.117188 0.0703125 4.609375 -0.15625 C 4.109375 -0.382812 3.671875 -0.757812 3.296875 -1.28125 L 3.109375 -1.25 L 3.109375 3.921875 Z M 6.046875 -1.09375 C 8.003906 -1.09375 8.984375 -2.335938 8.984375 -4.828125 C 8.984375 -7.328125 8.003906 -8.578125 6.046875 -8.578125 C 5.472656 -8.578125 4.96875 -8.445312 4.53125 -8.1875 C 4.09375 -7.925781 3.742188 -7.515625 3.484375 -6.953125 C 3.234375 -6.390625 3.109375 -5.679688 3.109375 -4.828125 C 3.109375 -3.984375 3.234375 -3.28125 3.484375 -2.71875 C 3.742188 -2.164062 4.09375 -1.753906 4.53125 -1.484375 C 4.96875 -1.222656 5.472656 -1.09375 6.046875 -1.09375 Z M 6.046875 -1.09375 "/></g></g></g><path stroke-linecap="round" transform="matrix(0.00000000130709, 0.74891, -0.74891, 0.00000000130709, 254.864232, 423.394242)" fill="none" stroke-linejoin="miter" d="M 1.50257 1.498237 L 91.64401 1.498237 " stroke="#000000" stroke-width="3" stroke-opacity="1" stroke-miterlimit="4"/><path stroke-linecap="round" transform="matrix(0.00000000130709, 0.74891, -0.74891, 0.00000000130709, 254.864232, 423.394242)" fill-opacity="1" fill="#000000" fill-rule="nonzero" stroke-linejoin="round" d="M 93.140978 -2.997881 L 99.13928 1.498237 L 93.140978 5.999572 Z M 93.140978 -2.997881 " stroke="#000000" stroke-width="3" stroke-opacity="1" stroke-miterlimit="4"/></svg>